<svg xmlns="http://www.w3.org/2000/svg" xmlns:xlink="http://www.w3.org/1999/xlink" width="55.093mm" height="65.278mm" viewBox="4010 3227.5 216.9 257"><title></title><style type="text/css">
*[layerid="1"] {stroke:#000000;fill:#000000;}
*[layerid="2"] {stroke:#000000;fill:#000000;}
*[layerid="3"] {stroke:#000000;fill:#000000;}
*[layerid="4"] {stroke:#000000;fill:#000000;}
*[layerid="5"] {stroke:#000000;fill:#000000;}
*[layerid="6"] {stroke:#000000;fill:#000000;}
*[layerid="7"] {stroke:#000000;fill:#000000;}
*[layerid="8"] {stroke:#000000;fill:#000000;}
*[layerid="9"] {stroke:#000000;fill:#000000;}
*[layerid="10"] {stroke:#000000;fill:#000000;}
*[layerid="11"] {stroke:#000000;fill:#000000;}
*[layerid="12"] {stroke:#000000;fill:#000000;}
*[layerid="13"] {stroke:#000000;fill:#000000;}
*[layerid="14"] {stroke:#000000;fill:#000000;}
*[layerid="15"] {stroke:#000000;fill:#000000;}
*[layerid="19"] {stroke:#000000;fill:#000000;}
*[layerid="21"] {stroke:#000000;fill:#000000;}
*[layerid="22"] {stroke:#000000;fill:#000000;}
*[layerid="23"] {stroke:#000000;fill:#000000;}
*[layerid="24"] {stroke:#000000;fill:#000000;}
*[layerid="25"] {stroke:#000000;fill:#000000;}
*[layerid="26"] {stroke:#000000;fill:#000000;}
*[layerid="27"] {stroke:#000000;fill:#000000;}
*[layerid="28"] {stroke:#000000;fill:#000000;}
*[layerid="29"] {stroke:#000000;fill:#000000;}
*[layerid="30"] {stroke:#000000;fill:#000000;}
*[layerid="31"] {stroke:#000000;fill:#000000;}
*[layerid="32"] {stroke:#000000;fill:#000000;}
*[layerid="33"] {stroke:#000000;fill:#000000;}
*[layerid="34"] {stroke:#000000;fill:#000000;}
*[layerid="35"] {stroke:#000000;fill:#000000;}
*[layerid="36"] {stroke:#000000;fill:#000000;}
*[layerid="37"] {stroke:#000000;fill:#000000;}
*[layerid="38"] {stroke:#000000;fill:#000000;}
*[layerid="39"] {stroke:#000000;fill:#000000;}
*[layerid="40"] {stroke:#000000;fill:#000000;}
*[layerid="41"] {stroke:#000000;fill:#000000;}
*[layerid="42"] {stroke:#000000;fill:#000000;}
*[layerid="43"] {stroke:#000000;fill:#000000;}
*[layerid="44"] {stroke:#000000;fill:#000000;}
*[layerid="45"] {stroke:#000000;fill:#000000;}
*[layerid="46"] {stroke:#000000;fill:#000000;}
*[layerid="47"] {stroke:#000000;fill:#000000;}
*[layerid="48"] {stroke:#000000;fill:#000000;}
*[layerid="49"] {stroke:#000000;fill:#000000;}
*[layerid="50"] {stroke:#000000;fill:#000000;}
*[layerid="51"] {stroke:#000000;fill:#000000;}
*[layerid="52"] {stroke:#000000;fill:#000000;}
*[layerid="99"] {stroke:#000000;fill:#000000;}
*[layerid="100"] {stroke:#000000;fill:#000000;}
*[layerid="101"] {stroke:#000000;fill:#000000;}
*[layerid="Hole"] {stroke:#000000;fill:#000000;}
*[layerid="DRCError"] {stroke:#000000;fill:#000000;}
*[fill="none"] {fill: none;}
*[stroke="none"] {stroke: none;}
path, polyline, polygon, line {stroke-linecap:round;}
g[c_partid="part_pad"][layerid="1"] ellipse:not([c_etype="pad_outer"]) {fill:#000000;}
g[c_partid="part_pad"][layerid="1"] polygon:not([c_etype="pad_outer"]) {fill:#000000;}
g[c_partid="part_pad"][layerid="1"] polyline:not([c_etype="pad_outer"]) {stroke:#000000;}
g[c_partid="part_pad"][layerid="2"] ellipse:not([c_etype="pad_outer"]) {fill:#000000;}
g[c_partid="part_pad"][layerid="2"] polygon:not([c_etype="pad_outer"]) {fill:#000000;}
g[c_partid="part_pad"][layerid="2"] polyline:not([c_etype="pad_outer"]) {stroke:#000000;}
g[c_partid="part_pad"][layerid="11"] ellipse:not([c_etype="pad_outer"]) {fill:#000000;}
g[c_partid="part_pad"][layerid="11"] polygon:not([c_etype="pad_outer"]) {fill:#000000;}
g[c_partid="part_pad"][layerid="11"] polyline:not([c_etype="pad_outer"]) {stroke:#000000;}
g[c_partid="part_pad"][layerid="11"] circle {fill:#FFFFFF;}
g[c_partid="part_pad"][layerid="11"] > polyline:nth-of-type(2) {stroke:#FFFFFF;}
g[c_partid="part_pad"][layerid="11"][c_shape="ELLIPSE"]  polyline:nth-last-of-type(1) {stroke:#FFFFFF;}
g[c_partid="part_pad"][layerid="11"][c_shape="RECT"]  polyline:nth-last-of-type(1) {stroke:#FFFFFF;}
g[c_partid="part_pad"][layerid="11"][c_shape="POLYGON"]  polyline:nth-last-of-type(1) {stroke:#FFFFFF;}
g[c_partid="part_via"] > * + circle, #gCurParts g[c_partid="part_via"] > * + circle {fill:#FFFFFF;}
g[c_partid="part_pad"] > polygon[c_etype="pad_outer"], #gCurParts g[c_partid="part_pad"] > polygon[c_etype="pad_outer"] {stroke-linejoin: miter;stroke-miterlimit: 100;}
g[c_partid="part_hole"] > circle {fill: #FFFFFF;}path, polyline, polygon {stroke-linejoin:round;}
rect, circle, ellipse, polyline, line, polygon, path {shape-rendering:crispEdges;}
</style>
<rect x="4010" y="3227.5" width="216.9" height="257" fill="#FFFFFF" stroke="none"/><polyline points="4149.315 3386.5 4149.315 3311.043 4153.858 3306.5" stroke-width="3.937"  stroke-linecap="round" fill="none" layerid="1" net="U1_4" id="gge774" locked="0" /><polyline points="4035.748 3379.2323 4055.4331 3379.2323 4055.4331 3454.0354 4090.8661 3454.0354 4090.8661 3387.1063" stroke-width="3.937"  stroke-linecap="round" fill="none" layerid="1" net="U1_4" id="gge711" locked="0" /><polyline points="4142.0472 3367.4213 4138.1102 3383.1693 4142.0472 3442.2244 4181.4173 3450.0984 4181.4173 3383.1693 4185.3543 3379.2323 4197.1654 3379.2323" stroke-width="3.937"  stroke-linecap="round" fill="none" layerid="1" net="U1_6" id="gge710" locked="0" /><polyline points="4177.4803 3328.0512 4181.4173 3324.1142 4181.4173 3288.6811 4177.4803 3284.7441 4110.5512 3284.7441 4110.5512 3406.7913" stroke-width="3.937"  stroke-linecap="round" fill="none" layerid="1" net="U1_15" id="gge709" locked="0" /><polyline points="4122.3622 3394.9803 4122.3622 3454.0354 4126.2992 3457.9724 4208.9764 3457.9724 4208.9764 3402.8543" stroke-width="3.937"  stroke-linecap="round" fill="none" layerid="1" net="U1_3" id="gge692" locked="0" /><polyline points="4157.7953 3347.7362 4157.7953 3406.7913 4145.9843 3406.7913" stroke-width="3.937"  stroke-linecap="round" fill="none" layerid="1" net="U1_2" id="gge669" locked="0" /><g c_partid="part_pad" c_etype="pinpart" c_origin="4068,3296.5" layerid="11" number="1" net="1_1" plated ="Y"  id="gge70" locked="0" c_rotation="270" c_width="7.6" c_height="7.6" title="1_1" c_shape="ELLIPSE" pasteexpansion="0" solderexpansion="0.4"><ellipse c_etype="pad_shell" cx="4068" cy="3296.5" rx="3.8" ry="3.8" layerid="11" stroke-width="0"/><polyline c_etype="pad_hole" points="4068 3296.4995 4068 3296.5005" layerid="11" stroke-width="3.936"></polyline></g><g c_partid="part_pad" c_etype="pinpart" c_origin="4068,3306.5" layerid="11" number="2" net="1_2" plated ="Y"  id="gge75" locked="0" c_rotation="270" c_width="7.6" c_height="7.6" title="1_2" c_shape="ELLIPSE" pasteexpansion="0" solderexpansion="0.4"><ellipse c_etype="pad_shell" cx="4068" cy="3306.5" rx="3.8" ry="3.8" layerid="11" stroke-width="0"/><polyline c_etype="pad_hole" points="4068 3306.4995 4068 3306.5005" layerid="11" stroke-width="3.936"></polyline></g><g c_partid="part_pad" c_etype="pinpart" c_origin="4068,3316.5" layerid="11" number="3" net="1_3" plated ="Y"  id="gge80" locked="0" c_rotation="270" c_width="7.6" c_height="7.6" title="1_3" c_shape="ELLIPSE" pasteexpansion="0" solderexpansion="0.4"><ellipse c_etype="pad_shell" cx="4068" cy="3316.5" rx="3.8" ry="3.8" layerid="11" stroke-width="0"/><polyline c_etype="pad_hole" points="4068 3316.4995 4068 3316.5005" layerid="11" stroke-width="3.936"></polyline></g><g c_partid="part_pad" c_etype="pinpart" c_origin="4068,3326.5" layerid="11" number="4" net="1_4" plated ="Y"  id="gge85" locked="0" c_rotation="270" c_width="7.6" c_height="7.6" title="1_4" c_shape="ELLIPSE" pasteexpansion="0" solderexpansion="0.4"><ellipse c_etype="pad_shell" cx="4068" cy="3326.5" rx="3.8" ry="3.8" layerid="11" stroke-width="0"/><polyline c_etype="pad_hole" points="4068 3326.4995 4068 3326.5005" layerid="11" stroke-width="3.936"></polyline></g><g c_partid="part_pad" c_etype="pinpart" c_origin="4068,3336.5" layerid="11" number="5" net="1_5" plated ="Y"  id="gge90" locked="0" c_rotation="270" c_width="7.6" c_height="7.6" title="1_5" c_shape="ELLIPSE" pasteexpansion="0" solderexpansion="0.4"><ellipse c_etype="pad_shell" cx="4068" cy="3336.5" rx="3.8" ry="3.8" layerid="11" stroke-width="0"/><polyline c_etype="pad_hole" points="4068 3336.4995 4068 3336.5005" layerid="11" stroke-width="3.936"></polyline></g><g c_partid="part_pad" c_etype="pinpart" c_origin="4068,3346.5" layerid="11" number="6" net="1_6" plated ="Y"  id="gge95" locked="0" c_rotation="270" c_width="7.6" c_height="7.6" title="1_6" c_shape="ELLIPSE" pasteexpansion="0" solderexpansion="0.4"><ellipse c_etype="pad_shell" cx="4068" cy="3346.5" rx="3.8" ry="3.8" layerid="11" stroke-width="0"/><polyline c_etype="pad_hole" points="4068 3346.4995 4068 3346.5005" layerid="11" stroke-width="3.936"></polyline></g><g c_partid="part_pad" c_etype="pinpart" c_origin="4068,3356.5" layerid="11" number="7" net="1_7" plated ="Y"  id="gge100" locked="0" c_rotation="270" c_width="7.6" c_height="7.6" title="1_7" c_shape="ELLIPSE" pasteexpansion="0" solderexpansion="0.4"><ellipse c_etype="pad_shell" cx="4068" cy="3356.5" rx="3.8" ry="3.8" layerid="11" stroke-width="0"/><polyline c_etype="pad_hole" points="4068 3356.4995 4068 3356.5005" layerid="11" stroke-width="3.936"></polyline></g><g c_partid="part_pad" c_etype="pinpart" c_origin="4068,3366.5" layerid="11" number="8" net="1_8" plated ="Y"  id="gge105" locked="0" c_rotation="270" c_width="7.6" c_height="7.6" title="1_8" c_shape="ELLIPSE" pasteexpansion="0" solderexpansion="0.4"><ellipse c_etype="pad_shell" cx="4068" cy="3366.5" rx="3.8" ry="3.8" layerid="11" stroke-width="0"/><polyline c_etype="pad_hole" points="4068 3366.4995 4068 3366.5005" layerid="11" stroke-width="3.936"></polyline></g><g c_partid="part_pad" c_etype="pinpart" c_origin="4068,3376.5" layerid="11" number="9" net="1_9" plated ="Y"  id="gge110" locked="0" c_rotation="270" c_width="7.6" c_height="7.6" title="1_9" c_shape="ELLIPSE" pasteexpansion="0" solderexpansion="0.4"><ellipse c_etype="pad_shell" cx="4068" cy="3376.5" rx="3.8" ry="3.8" layerid="11" stroke-width="0"/><polyline c_etype="pad_hole" points="4068 3376.4995 4068 3376.5005" layerid="11" stroke-width="3.936"></polyline></g><g c_partid="part_pad" c_etype="pinpart" c_origin="4068,3386.5" layerid="11" number="10" net="1_10" plated ="Y"  id="gge115" locked="0" c_rotation="270" c_width="7.6" c_height="7.6" title="1_10" c_shape="ELLIPSE" pasteexpansion="0" solderexpansion="0.4"><ellipse c_etype="pad_shell" cx="4068" cy="3386.5" rx="3.8" ry="3.8" layerid="11" stroke-width="0"/><polyline c_etype="pad_hole" points="4068 3386.4995 4068 3386.5005" layerid="11" stroke-width="3.936"></polyline></g><g c_partid="part_pad" c_etype="pinpart" c_origin="4068,3396.5" layerid="11" number="11" net="1_11" plated ="Y"  id="gge120" locked="0" c_rotation="270" c_width="7.6" c_height="7.6" title="1_11" c_shape="ELLIPSE" pasteexpansion="0" solderexpansion="0.4"><ellipse c_etype="pad_shell" cx="4068" cy="3396.5" rx="3.8" ry="3.8" layerid="11" stroke-width="0"/><polyline c_etype="pad_hole" points="4068 3396.4995 4068 3396.5005" layerid="11" stroke-width="3.936"></polyline></g><g c_partid="part_pad" c_etype="pinpart" c_origin="4068,3406.5" layerid="11" number="12" net="1_12" plated ="Y"  id="gge125" locked="0" c_rotation="270" c_width="7.6" c_height="7.6" title="1_12" c_shape="ELLIPSE" pasteexpansion="0" solderexpansion="0.4"><ellipse c_etype="pad_shell" cx="4068" cy="3406.5" rx="3.8" ry="3.8" layerid="11" stroke-width="0"/><polyline c_etype="pad_hole" points="4068 3406.4995 4068 3406.5005" layerid="11" stroke-width="3.936"></polyline></g><g c_partid="part_pad" c_etype="pinpart" c_origin="4068,3416.5" layerid="11" number="13" net="1_13" plated ="Y"  id="gge130" locked="0" c_rotation="270" c_width="7.6" c_height="7.6" title="1_13" c_shape="ELLIPSE" pasteexpansion="0" solderexpansion="0.4"><ellipse c_etype="pad_shell" cx="4068" cy="3416.5" rx="3.8" ry="3.8" layerid="11" stroke-width="0"/><polyline c_etype="pad_hole" points="4068 3416.4995 4068 3416.5005" layerid="11" stroke-width="3.936"></polyline></g><g c_partid="part_pad" c_etype="pinpart" c_origin="4068,3426.5" layerid="11" number="14" net="1_14" plated ="Y"  id="gge135" locked="0" c_rotation="270" c_width="7.6" c_height="7.6" title="1_14" c_shape="ELLIPSE" pasteexpansion="0" solderexpansion="0.4"><ellipse c_etype="pad_shell" cx="4068" cy="3426.5" rx="3.8" ry="3.8" layerid="11" stroke-width="0"/><polyline c_etype="pad_hole" points="4068 3426.4995 4068 3426.5005" layerid="11" stroke-width="3.936"></polyline></g><g c_partid="part_pad" c_etype="pinpart" c_origin="4068,3436.5" layerid="11" number="15" net="1_15" plated ="Y"  id="gge140" locked="0" c_rotation="270" c_width="7.6" c_height="7.6" title="1_15" c_shape="ELLIPSE" pasteexpansion="0" solderexpansion="0.4"><ellipse c_etype="pad_shell" cx="4068" cy="3436.5" rx="3.8" ry="3.8" layerid="11" stroke-width="0"/><polyline c_etype="pad_hole" points="4068 3436.4995 4068 3436.5005" layerid="11" stroke-width="3.936"></polyline></g><g c_partid="part_pad" c_etype="pinpart" c_origin="4168,3296.5" layerid="11" number="30" net="U1_1" plated ="Y"  id="gge145" locked="0" c_rotation="270" c_width="7.6" c_height="7.6" title="U1_1" c_shape="ELLIPSE" pasteexpansion="0" solderexpansion="0.4"><ellipse c_etype="pad_shell" cx="4168" cy="3296.5" rx="3.8" ry="3.8" layerid="11" stroke-width="0"/><polyline c_etype="pad_hole" points="4168 3296.4995 4168 3296.5005" layerid="11" stroke-width="3.936"></polyline></g><g c_partid="part_pad" c_etype="pinpart" c_origin="4168,3306.5" layerid="11" number="29" net="U1_4" plated ="Y"  id="gge150" locked="0" c_rotation="270" c_width="7.6" c_height="7.6" title="U1_4" c_shape="ELLIPSE" pasteexpansion="0" solderexpansion="0.4"><ellipse c_etype="pad_shell" cx="4168" cy="3306.5" rx="3.8" ry="3.8" layerid="11" stroke-width="0"/><polyline c_etype="pad_hole" points="4168 3306.4995 4168 3306.5005" layerid="11" stroke-width="3.936"></polyline></g><g c_partid="part_pad" c_etype="pinpart" c_origin="4168,3316.5" layerid="11" number="28" net="U1_10" plated ="Y"  id="gge155" locked="0" c_rotation="270" c_width="7.6" c_height="7.6" title="U1_10" c_shape="ELLIPSE" pasteexpansion="0" solderexpansion="0.4"><ellipse c_etype="pad_shell" cx="4168" cy="3316.5" rx="3.8" ry="3.8" layerid="11" stroke-width="0"/><polyline c_etype="pad_hole" points="4168 3316.4995 4168 3316.5005" layerid="11" stroke-width="3.936"></polyline></g><g c_partid="part_pad" c_etype="pinpart" c_origin="4168,3326.5" layerid="11" number="27" net="U1_15" plated ="Y"  id="gge160" locked="0" c_rotation="270" c_width="7.6" c_height="7.6" title="U1_15" c_shape="ELLIPSE" pasteexpansion="0" solderexpansion="0.4"><ellipse c_etype="pad_shell" cx="4168" cy="3326.5" rx="3.8" ry="3.8" layerid="11" stroke-width="0"/><polyline c_etype="pad_hole" points="4168 3326.4995 4168 3326.5005" layerid="11" stroke-width="3.936"></polyline></g><g c_partid="part_pad" c_etype="pinpart" c_origin="4168,3336.5" layerid="11" number="26" net="1_26" plated ="Y"  id="gge165" locked="0" c_rotation="270" c_width="7.6" c_height="7.6" title="1_26" c_shape="ELLIPSE" pasteexpansion="0" solderexpansion="0.4"><ellipse c_etype="pad_shell" cx="4168" cy="3336.5" rx="3.8" ry="3.8" layerid="11" stroke-width="0"/><polyline c_etype="pad_hole" points="4168 3336.4995 4168 3336.5005" layerid="11" stroke-width="3.936"></polyline></g><g c_partid="part_pad" c_etype="pinpart" c_origin="4168,3346.5" layerid="11" number="25" net="U1_2" plated ="Y"  id="gge170" locked="0" c_rotation="270" c_width="7.6" c_height="7.6" title="U1_2" c_shape="ELLIPSE" pasteexpansion="0" solderexpansion="0.4"><ellipse c_etype="pad_shell" cx="4168" cy="3346.5" rx="3.8" ry="3.8" layerid="11" stroke-width="0"/><polyline c_etype="pad_hole" points="4168 3346.4995 4168 3346.5005" layerid="11" stroke-width="3.936"></polyline></g><g c_partid="part_pad" c_etype="pinpart" c_origin="4168,3356.5" layerid="11" number="24" net="U1_7" plated ="Y"  id="gge175" locked="0" c_rotation="270" c_width="7.6" c_height="7.6" title="U1_7" c_shape="ELLIPSE" pasteexpansion="0" solderexpansion="0.4"><ellipse c_etype="pad_shell" cx="4168" cy="3356.5" rx="3.8" ry="3.8" layerid="11" stroke-width="0"/><polyline c_etype="pad_hole" points="4168 3356.4995 4168 3356.5005" layerid="11" stroke-width="3.936"></polyline></g><g c_partid="part_pad" c_etype="pinpart" c_origin="4168,3366.5" layerid="11" number="23" net="1_23" plated ="Y"  id="gge180" locked="0" c_rotation="270" c_width="7.6" c_height="7.6" title="1_23" c_shape="ELLIPSE" pasteexpansion="0" solderexpansion="0.4"><ellipse c_etype="pad_shell" cx="4168" cy="3366.5" rx="3.8" ry="3.8" layerid="11" stroke-width="0"/><polyline c_etype="pad_hole" points="4168 3366.4995 4168 3366.5005" layerid="11" stroke-width="3.936"></polyline></g><g c_partid="part_pad" c_etype="pinpart" c_origin="4168,3376.5" layerid="11" number="22" net="1_22" plated ="Y"  id="gge185" locked="0" c_rotation="270" c_width="7.6" c_height="7.6" title="1_22" c_shape="ELLIPSE" pasteexpansion="0" solderexpansion="0.4"><ellipse c_etype="pad_shell" cx="4168" cy="3376.5" rx="3.8" ry="3.8" layerid="11" stroke-width="0"/><polyline c_etype="pad_hole" points="4168 3376.4995 4168 3376.5005" layerid="11" stroke-width="3.936"></polyline></g><g c_partid="part_pad" c_etype="pinpart" c_origin="4168,3386.5" layerid="11" number="21" net="1_21" plated ="Y"  id="gge190" locked="0" c_rotation="270" c_width="7.6" c_height="7.6" title="1_21" c_shape="ELLIPSE" pasteexpansion="0" solderexpansion="0.4"><ellipse c_etype="pad_shell" cx="4168" cy="3386.5" rx="3.8" ry="3.8" layerid="11" stroke-width="0"/><polyline c_etype="pad_hole" points="4168 3386.4995 4168 3386.5005" layerid="11" stroke-width="3.936"></polyline></g><g c_partid="part_pad" c_etype="pinpart" c_origin="4168,3396.5" layerid="11" number="20" net="1_20" plated ="Y"  id="gge195" locked="0" c_rotation="270" c_width="7.6" c_height="7.6" title="1_20" c_shape="ELLIPSE" pasteexpansion="0" solderexpansion="0.4"><ellipse c_etype="pad_shell" cx="4168" cy="3396.5" rx="3.8" ry="3.8" layerid="11" stroke-width="0"/><polyline c_etype="pad_hole" points="4168 3396.4995 4168 3396.5005" layerid="11" stroke-width="3.936"></polyline></g><g c_partid="part_pad" c_etype="pinpart" c_origin="4168,3406.5" layerid="11" number="19" net="1_19" plated ="Y"  id="gge200" locked="0" c_rotation="270" c_width="7.6" c_height="7.6" title="1_19" c_shape="ELLIPSE" pasteexpansion="0" solderexpansion="0.4"><ellipse c_etype="pad_shell" cx="4168" cy="3406.5" rx="3.8" ry="3.8" layerid="11" stroke-width="0"/><polyline c_etype="pad_hole" points="4168 3406.4995 4168 3406.5005" layerid="11" stroke-width="3.936"></polyline></g><g c_partid="part_pad" c_etype="pinpart" c_origin="4168,3416.5" layerid="11" number="18" net="1_18" plated ="Y"  id="gge205" locked="0" c_rotation="270" c_width="7.6" c_height="7.6" title="1_18" c_shape="ELLIPSE" pasteexpansion="0" solderexpansion="0.4"><ellipse c_etype="pad_shell" cx="4168" cy="3416.5" rx="3.8" ry="3.8" layerid="11" stroke-width="0"/><polyline c_etype="pad_hole" points="4168 3416.4995 4168 3416.5005" layerid="11" stroke-width="3.936"></polyline></g><g c_partid="part_pad" c_etype="pinpart" c_origin="4168,3426.5" layerid="11" number="17" net="1_17" plated ="Y"  id="gge210" locked="0" c_rotation="270" c_width="7.6" c_height="7.6" title="1_17" c_shape="ELLIPSE" pasteexpansion="0" solderexpansion="0.4"><ellipse c_etype="pad_shell" cx="4168" cy="3426.5" rx="3.8" ry="3.8" layerid="11" stroke-width="0"/><polyline c_etype="pad_hole" points="4168 3426.4995 4168 3426.5005" layerid="11" stroke-width="3.936"></polyline></g><g c_partid="part_pad" c_etype="pinpart" c_origin="4168,3436.5" layerid="11" number="16" net="1_16" plated ="Y"  id="gge215" locked="0" c_rotation="270" c_width="7.6" c_height="7.6" title="1_16" c_shape="ELLIPSE" pasteexpansion="0" solderexpansion="0.4"><ellipse c_etype="pad_shell" cx="4168" cy="3436.5" rx="3.8" ry="3.8" layerid="11" stroke-width="0"/><polyline c_etype="pad_hole" points="4168 3436.4995 4168 3436.5005" layerid="11" stroke-width="3.936"></polyline></g><g c_partid="part_pad" c_etype="pinpart" c_origin="4196.5,3424" layerid="11" number="4" net="1_23" plated ="Y"  id="gge234" locked="0" c_rotation="270" c_width="7.874" c_height="7.874" title="1_23" c_shape="ELLIPSE" pasteexpansion="0" solderexpansion="0.4"><ellipse c_etype="pad_shell" cx="4196.5" cy="3424" rx="3.937" ry="3.937" layerid="11" stroke-width="0"/><circle c_etype="pad_hole" cx="4196.5" cy="3424" r="1.75" layerid="11" stroke-width="0"/></g><g c_partid="part_pad" c_etype="pinpart" c_origin="4196.5,3404" layerid="11" number="2" net="U1_3" plated ="Y"  id="gge239" locked="0" c_rotation="270" c_width="7.874" c_height="7.874" title="U1_3" c_shape="RECT" pasteexpansion="0" solderexpansion="0.3937"><polygon  c_etype="pad_shell" points="4200.437 3400.063 4200.437 3407.937 4192.563 3407.937 4192.563 3400.063" layerid="11" stroke-width="0" /><circle c_etype="pad_hole" cx="4196.5" cy="3404" r="1.75" layerid="11" stroke-width="0"/></g><g c_partid="part_pad" c_etype="pinpart" c_origin="4196.5,3394" layerid="11" number="1" net="U1_6" plated ="Y"  id="gge244" locked="0" c_rotation="270" c_width="7.874" c_height="7.874" title="U1_6" c_shape="RECT" pasteexpansion="0" solderexpansion="0.4"><polygon  c_etype="pad_shell" points="4200.437 3390.063 4200.437 3397.937 4192.563 3397.937 4192.563 3390.063" layerid="11" stroke-width="0" /><circle c_etype="pad_hole" cx="4196.5" cy="3394" r="1.75" layerid="11" stroke-width="0"/></g><g c_partid="part_pad" c_etype="pinpart" c_origin="4196.5,3434" layerid="11" number="5" net="1_22" plated ="Y"  id="gge249" locked="0" c_rotation="270" c_width="7.874" c_height="7.874" title="1_22" c_shape="ELLIPSE" pasteexpansion="0" solderexpansion="0.4"><ellipse c_etype="pad_shell" cx="4196.5" cy="3434" rx="3.937" ry="3.937" layerid="11" stroke-width="0"/><circle c_etype="pad_hole" cx="4196.5" cy="3434" r="1.75" layerid="11" stroke-width="0"/></g><g c_partid="part_pad" c_etype="pinpart" c_origin="4196.5,3414" layerid="11" number="3" net="U1_1" plated ="Y"  id="gge254" locked="0" c_rotation="270" c_width="7.874" c_height="7.874" title="U1_1" c_shape="ELLIPSE" pasteexpansion="0" solderexpansion="0.3937"><ellipse c_etype="pad_shell" cx="4196.5" cy="3414" rx="3.937" ry="3.937" layerid="11" stroke-width="0"/><circle c_etype="pad_hole" cx="4196.5" cy="3414" r="1.75" layerid="11" stroke-width="0"/></g><g c_partid="part_pad" c_etype="pinpart" c_origin="4196.5,3444" layerid="11" number="6" net="U1_4" plated ="Y"  id="gge259" locked="0" c_rotation="270" c_width="7.874" c_height="7.874" title="U1_4" c_shape="ELLIPSE" pasteexpansion="0" solderexpansion="0.4"><ellipse c_etype="pad_shell" cx="4196.5" cy="3444" rx="3.937" ry="3.937" layerid="11" stroke-width="0"/><circle c_etype="pad_hole" cx="4196.5" cy="3444" r="1.75" layerid="11" stroke-width="0"/></g><g c_partid="part_pad" c_etype="pinpart" c_origin="4041,3414.5" layerid="11" number="4" net="1_10" plated ="Y"  id="gge276" locked="0" c_rotation="90" c_width="7.874" c_height="7.874" title="1_10" c_shape="ELLIPSE" pasteexpansion="0" solderexpansion="0.4"><ellipse c_etype="pad_shell" cx="4041" cy="3414.5" rx="3.937" ry="3.937" layerid="11" stroke-width="0"/><circle c_etype="pad_hole" cx="4041" cy="3414.5" r="1.75" layerid="11" stroke-width="0"/></g><g c_partid="part_pad" c_etype="pinpart" c_origin="4041,3434.5" layerid="11" number="2" net="U1_11" plated ="Y"  id="gge281" locked="0" c_rotation="90" c_width="7.874" c_height="7.874" title="U1_11" c_shape="RECT" pasteexpansion="0" solderexpansion="0.3937"><polygon  c_etype="pad_shell" points="4037.063 3438.437 4037.063 3430.563 4044.937 3430.563 4044.937 3438.437" layerid="11" stroke-width="0" /><circle c_etype="pad_hole" cx="4041" cy="3434.5" r="1.75" layerid="11" stroke-width="0"/></g><g c_partid="part_pad" c_etype="pinpart" c_origin="4041,3444.5" layerid="11" number="1" net="U1_14" plated ="Y"  id="gge286" locked="0" c_rotation="90" c_width="7.874" c_height="7.874" title="U1_14" c_shape="RECT" pasteexpansion="0" solderexpansion="0.4"><polygon  c_etype="pad_shell" points="4037.063 3448.437 4037.063 3440.563 4044.937 3440.563 4044.937 3448.437" layerid="11" stroke-width="0" /><circle c_etype="pad_hole" cx="4041" cy="3444.5" r="1.75" layerid="11" stroke-width="0"/></g><g c_partid="part_pad" c_etype="pinpart" c_origin="4041,3404.5" layerid="11" number="5" net="1_9" plated ="Y"  id="gge291" locked="0" c_rotation="90" c_width="7.874" c_height="7.874" title="1_9" c_shape="ELLIPSE" pasteexpansion="0" solderexpansion="0.4"><ellipse c_etype="pad_shell" cx="4041" cy="3404.5" rx="3.937" ry="3.937" layerid="11" stroke-width="0"/><circle c_etype="pad_hole" cx="4041" cy="3404.5" r="1.75" layerid="11" stroke-width="0"/></g><g c_partid="part_pad" c_etype="pinpart" c_origin="4041,3424.5" layerid="11" number="3" net="U1_1" plated ="Y"  id="gge296" locked="0" c_rotation="90" c_width="7.874" c_height="7.874" title="U1_1" c_shape="ELLIPSE" pasteexpansion="0" solderexpansion="0.3937"><ellipse c_etype="pad_shell" cx="4041" cy="3424.5" rx="3.937" ry="3.937" layerid="11" stroke-width="0"/><circle c_etype="pad_hole" cx="4041" cy="3424.5" r="1.75" layerid="11" stroke-width="0"/></g><g c_partid="part_pad" c_etype="pinpart" c_origin="4041,3394.5" layerid="11" number="6" net="U1_4" plated ="Y"  id="gge301" locked="0" c_rotation="90" c_width="7.874" c_height="7.874" title="U1_4" c_shape="ELLIPSE" pasteexpansion="0" solderexpansion="0.4"><ellipse c_etype="pad_shell" cx="4041" cy="3394.5" rx="3.937" ry="3.937" layerid="11" stroke-width="0"/><circle c_etype="pad_hole" cx="4041" cy="3394.5" r="1.75" layerid="11" stroke-width="0"/></g><g c_partid="part_pad" c_etype="pinpart" c_origin="4131.5,3416.5" layerid="11" number="1" net="U1_1" plated ="Y"  id="gge352" locked="0" c_rotation="90" c_width="5.748" c_height="7.185" title="U1_1" c_shape="OVAL" pasteexpansion="0.0000" solderexpansion="0.2000"><polyline  c_etype="pad_shell" points="4130.7815 3416.5 4132.2185 3416.5" layerid="11" stroke-width="5.748" /><circle c_etype="pad_hole" cx="4131.5" cy="3416.5" r="1.5748" layerid="11" stroke-width="0"/></g><g c_partid="part_pad" c_etype="pinpart" c_origin="4131.5,3406.5" layerid="11" number="2" net="U1_2" plated ="Y"  id="gge357" locked="0" c_rotation="90" c_width="5.748" c_height="7.185" title="U1_2" c_shape="OVAL" pasteexpansion="0.0000" solderexpansion="0.2000"><polyline  c_etype="pad_shell" points="4130.7815 3406.5 4132.2185 3406.5" layerid="11" stroke-width="5.748" /><circle c_etype="pad_hole" cx="4131.5" cy="3406.5" r="1.5748" layerid="11" stroke-width="0"/></g><g c_partid="part_pad" c_etype="pinpart" c_origin="4131.5,3396.5" layerid="11" number="3" net="U1_3" plated ="Y"  id="gge362" locked="0" c_rotation="90" c_width="5.748" c_height="7.185" title="U1_3" c_shape="OVAL" pasteexpansion="0.0000" solderexpansion="0.2000"><polyline  c_etype="pad_shell" points="4130.7815 3396.5 4132.2185 3396.5" layerid="11" stroke-width="5.748" /><circle c_etype="pad_hole" cx="4131.5" cy="3396.5" r="1.5748" layerid="11" stroke-width="0"/></g><g c_partid="part_pad" c_etype="pinpart" c_origin="4131.5,3386.5" layerid="11" number="4" net="U1_4" plated ="Y"  id="gge367" locked="0" c_rotation="90" c_width="5.748" c_height="7.185" title="U1_4" c_shape="OVAL" pasteexpansion="0.0000" solderexpansion="0.2000"><polyline  c_etype="pad_shell" points="4130.7815 3386.5 4132.2185 3386.5" layerid="11" stroke-width="5.748" /><circle c_etype="pad_hole" cx="4131.5" cy="3386.5" r="1.5748" layerid="11" stroke-width="0"/></g><g c_partid="part_pad" c_etype="pinpart" c_origin="4131.5,3376.5" layerid="11" number="5" net="U1_4" plated ="Y"  id="gge372" locked="0" c_rotation="90" c_width="5.748" c_height="7.185" title="U1_4" c_shape="OVAL" pasteexpansion="0.0000" solderexpansion="0.2000"><polyline  c_etype="pad_shell" points="4130.7815 3376.5 4132.2185 3376.5" layerid="11" stroke-width="5.748" /><circle c_etype="pad_hole" cx="4131.5" cy="3376.5" r="1.5748" layerid="11" stroke-width="0"/></g><g c_partid="part_pad" c_etype="pinpart" c_origin="4131.5,3366.5" layerid="11" number="6" net="U1_6" plated ="Y"  id="gge377" locked="0" c_rotation="90" c_width="5.748" c_height="7.185" title="U1_6" c_shape="OVAL" pasteexpansion="0.0000" solderexpansion="0.2000"><polyline  c_etype="pad_shell" points="4130.7815 3366.5 4132.2185 3366.5" layerid="11" stroke-width="5.748" /><circle c_etype="pad_hole" cx="4131.5" cy="3366.5" r="1.5748" layerid="11" stroke-width="0"/></g><g c_partid="part_pad" c_etype="pinpart" c_origin="4131.5,3356.5" layerid="11" number="7" net="U1_7" plated ="Y"  id="gge382" locked="0" c_rotation="90" c_width="5.748" c_height="7.185" title="U1_7" c_shape="OVAL" pasteexpansion="0.0000" solderexpansion="0.2000"><polyline  c_etype="pad_shell" points="4130.7815 3356.5 4132.2185 3356.5" layerid="11" stroke-width="5.748" /><circle c_etype="pad_hole" cx="4131.5" cy="3356.5" r="1.5748" layerid="11" stroke-width="0"/></g><g c_partid="part_pad" c_etype="pinpart" c_origin="4131.5,3346.5" layerid="11" number="8" net="U1_1" plated ="Y"  id="gge387" locked="0" c_rotation="90" c_width="5.748" c_height="7.185" title="U1_1" c_shape="OVAL" pasteexpansion="0.0000" solderexpansion="0.2000"><polyline  c_etype="pad_shell" points="4130.7815 3346.5 4132.2185 3346.5" layerid="11" stroke-width="5.748" /><circle c_etype="pad_hole" cx="4131.5" cy="3346.5" r="1.5748" layerid="11" stroke-width="0"/></g><g c_partid="part_pad" c_etype="pinpart" c_origin="4101.5,3416.5" layerid="11" number="16" net="U1_1" plated ="Y"  id="gge392" locked="0" c_rotation="90" c_width="5.748" c_height="7.185" title="U1_1" c_shape="OVAL" pasteexpansion="0.0000" solderexpansion="0.2000"><polyline  c_etype="pad_shell" points="4100.7815 3416.5 4102.2185 3416.5" layerid="11" stroke-width="5.748" /><circle c_etype="pad_hole" cx="4101.5" cy="3416.5" r="1.5748" layerid="11" stroke-width="0"/></g><g c_partid="part_pad" c_etype="pinpart" c_origin="4101.5,3406.5" layerid="11" number="15" net="U1_15" plated ="Y"  id="gge397" locked="0" c_rotation="90" c_width="5.748" c_height="7.185" title="U1_15" c_shape="OVAL" pasteexpansion="0.0000" solderexpansion="0.2000"><polyline  c_etype="pad_shell" points="4100.7815 3406.5 4102.2185 3406.5" layerid="11" stroke-width="5.748" /><circle c_etype="pad_hole" cx="4101.5" cy="3406.5" r="1.5748" layerid="11" stroke-width="0"/></g><g c_partid="part_pad" c_etype="pinpart" c_origin="4101.5,3396.5" layerid="11" number="14" net="U1_14" plated ="Y"  id="gge402" locked="0" c_rotation="90" c_width="5.748" c_height="7.185" title="U1_14" c_shape="OVAL" pasteexpansion="0.0000" solderexpansion="0.2000"><polyline  c_etype="pad_shell" points="4100.7815 3396.5 4102.2185 3396.5" layerid="11" stroke-width="5.748" /><circle c_etype="pad_hole" cx="4101.5" cy="3396.5" r="1.5748" layerid="11" stroke-width="0"/></g><g c_partid="part_pad" c_etype="pinpart" c_origin="4101.5,3386.5" layerid="11" number="13" net="U1_4" plated ="Y"  id="gge407" locked="0" c_rotation="90" c_width="5.748" c_height="7.185" title="U1_4" c_shape="OVAL" pasteexpansion="0.0000" solderexpansion="0.2000"><polyline  c_etype="pad_shell" points="4100.7815 3386.5 4102.2185 3386.5" layerid="11" stroke-width="5.748" /><circle c_etype="pad_hole" cx="4101.5" cy="3386.5" r="1.5748" layerid="11" stroke-width="0"/></g><g c_partid="part_pad" c_etype="pinpart" c_origin="4101.5,3376.5" layerid="11" number="12" net="U1_4" plated ="Y"  id="gge412" locked="0" c_rotation="90" c_width="5.748" c_height="7.185" title="U1_4" c_shape="OVAL" pasteexpansion="0.0000" solderexpansion="0.2000"><polyline  c_etype="pad_shell" points="4100.7815 3376.5 4102.2185 3376.5" layerid="11" stroke-width="5.748" /><circle c_etype="pad_hole" cx="4101.5" cy="3376.5" r="1.5748" layerid="11" stroke-width="0"/></g><g c_partid="part_pad" c_etype="pinpart" c_origin="4101.5,3366.5" layerid="11" number="11" net="U1_11" plated ="Y"  id="gge417" locked="0" c_rotation="90" c_width="5.748" c_height="7.185" title="U1_11" c_shape="OVAL" pasteexpansion="0.0000" solderexpansion="0.2000"><polyline  c_etype="pad_shell" points="4100.7815 3366.5 4102.2185 3366.5" layerid="11" stroke-width="5.748" /><circle c_etype="pad_hole" cx="4101.5" cy="3366.5" r="1.5748" layerid="11" stroke-width="0"/></g><g c_partid="part_pad" c_etype="pinpart" c_origin="4101.5,3356.5" layerid="11" number="10" net="U1_10" plated ="Y"  id="gge422" locked="0" c_rotation="90" c_width="5.748" c_height="7.185" title="U1_10" c_shape="OVAL" pasteexpansion="0.0000" solderexpansion="0.2000"><polyline  c_etype="pad_shell" points="4100.7815 3356.5 4102.2185 3356.5" layerid="11" stroke-width="5.748" /><circle c_etype="pad_hole" cx="4101.5" cy="3356.5" r="1.5748" layerid="11" stroke-width="0"/></g><g c_partid="part_pad" c_etype="pinpart" c_origin="4101.5,3346.5" layerid="11" number="9" net="U1_1" plated ="Y"  id="gge427" locked="0" c_rotation="90" c_width="5.748" c_height="7.185" title="U1_1" c_shape="OVAL" pasteexpansion="0.0000" solderexpansion="0.2000"><polyline  c_etype="pad_shell" points="4100.7815 3346.5 4102.2185 3346.5" layerid="11" stroke-width="5.748" /><circle c_etype="pad_hole" cx="4101.5" cy="3346.5" r="1.5748" layerid="11" stroke-width="0"/></g><g c_partid="part_via" c_etype="pinpart" c_shapetype="group" net="U1_4" c_origin="4149.315,3386.5" layerid="11" id="gge512" locked="0" solderexpansion=""><circle cx="4149.315" cy="3386.5" r="1.2" stroke-width="0" c_etype="pad_shell"/><circle cx="4149.315" cy="3386.5" r="0.6"  stroke-width="0" c_etype="pad_hole"/></g><g c_partid="part_via" c_etype="pinpart" c_shapetype="group" net="U1_2" c_origin="4145.984,3406.791" layerid="11" id="gge552" locked="0" solderexpansion=""><circle cx="4145.984" cy="3406.791" r="1.2" stroke-width="0" c_etype="pad_shell"/><circle cx="4145.984" cy="3406.791" r="0.6"  stroke-width="0" c_etype="pad_hole"/></g><g c_partid="part_via" c_etype="pinpart" c_shapetype="group" net="U1_6" c_origin="4142.047,3367.421" layerid="11" id="gge561" locked="0" solderexpansion=""><circle cx="4142.047" cy="3367.421" r="1.2" stroke-width="0" c_etype="pad_shell"/><circle cx="4142.047" cy="3367.421" r="0.6"  stroke-width="0" c_etype="pad_hole"/></g><g c_partid="part_via" c_etype="pinpart" c_shapetype="group" net="U1_4" c_origin="4035.748,3379.232" layerid="11" id="gge579" locked="0" solderexpansion=""><circle cx="4035.748" cy="3379.232" r="1.2" stroke-width="0" c_etype="pad_shell"/><circle cx="4035.748" cy="3379.232" r="0.6"  stroke-width="0" c_etype="pad_hole"/></g><g c_partid="part_via" c_etype="pinpart" c_shapetype="group" net="U1_4" c_origin="4090.866,3387.106" layerid="11" id="gge583" locked="0" solderexpansion=""><circle cx="4090.866" cy="3387.106" r="1.2" stroke-width="0" c_etype="pad_shell"/><circle cx="4090.866" cy="3387.106" r="0.6"  stroke-width="0" c_etype="pad_hole"/></g><g c_partid="part_via" c_etype="pinpart" c_shapetype="group" net="U1_6" c_origin="4197.165,3379.232" layerid="11" id="gge618" locked="0" solderexpansion=""><circle cx="4197.165" cy="3379.232" r="1.2" stroke-width="0" c_etype="pad_shell"/><circle cx="4197.165" cy="3379.232" r="0.6"  stroke-width="0" c_etype="pad_hole"/></g><g c_partid="part_via" c_etype="pinpart" c_shapetype="group" net="U1_3" c_origin="4208.976,3402.854" layerid="11" id="gge622" locked="0" solderexpansion=""><circle cx="4208.976" cy="3402.854" r="1.2" stroke-width="0" c_etype="pad_shell"/><circle cx="4208.976" cy="3402.854" r="0.6"  stroke-width="0" c_etype="pad_hole"/></g><g c_partid="part_via" c_etype="pinpart" c_shapetype="group" net="U1_2" c_origin="4157.795,3347.736" layerid="11" id="gge653" locked="0" solderexpansion=""><circle cx="4157.795" cy="3347.736" r="1.2" stroke-width="0" c_etype="pad_shell"/><circle cx="4157.795" cy="3347.736" r="0.6"  stroke-width="0" c_etype="pad_hole"/></g><g c_partid="part_via" c_etype="pinpart" c_shapetype="group" net="U1_15" c_origin="4110.551,3406.791" layerid="11" id="gge683" locked="0" solderexpansion=""><circle cx="4110.551" cy="3406.791" r="1.2" stroke-width="0" c_etype="pad_shell"/><circle cx="4110.551" cy="3406.791" r="0.6"  stroke-width="0" c_etype="pad_hole"/></g><g c_partid="part_via" c_etype="pinpart" c_shapetype="group" net="U1_3" c_origin="4122.362,3394.98" layerid="11" id="gge687" locked="0" solderexpansion=""><circle cx="4122.362" cy="3394.98" r="1.2" stroke-width="0" c_etype="pad_shell"/><circle cx="4122.362" cy="3394.98" r="0.6"  stroke-width="0" c_etype="pad_hole"/></g><g c_partid="part_via" c_etype="pinpart" c_shapetype="group" net="U1_15" c_origin="4177.48,3328.051" layerid="11" id="gge704" locked="0" solderexpansion=""><circle cx="4177.48" cy="3328.051" r="1.2" stroke-width="0" c_etype="pad_shell"/><circle cx="4177.48" cy="3328.051" r="0.6"  stroke-width="0" c_etype="pad_hole"/></g><g c_partid="part_via" c_etype="pinpart" c_shapetype="group" net="U1_4" c_origin="4153.858,3306.5" layerid="11" id="gge768" locked="0" solderexpansion=""><circle cx="4153.858" cy="3306.5" r="1.2" stroke-width="0" c_etype="pad_shell"/><circle cx="4153.858" cy="3306.5" r="0.6"  stroke-width="0" c_etype="pad_hole"/></g><g c_partid="part_hole" c_etype="pinpart" c_shapetype="group" c_origin="4031.811,3249.311" layerid="11" id="gge716" locked="0" ><circle cx="4031.811" cy="3249.311" r="4"  stroke-width="1" fill-opacity="0" /></g><g c_partid="part_hole" c_etype="pinpart" c_shapetype="group" c_origin="4205.039,3249.311" layerid="11" id="gge731" locked="0" ><circle cx="4205.039" cy="3249.311" r="4"  stroke-width="1" fill-opacity="0" /></g><g c_partid="part_hole" c_etype="pinpart" c_shapetype="group" c_origin="4205.039,3359.547" layerid="11" id="gge751" locked="0" ><circle cx="4205.039" cy="3359.547" r="4"  stroke-width="1" fill-opacity="0" /></g><g c_partid="part_hole" c_etype="pinpart" c_shapetype="group" c_origin="4031.811,3359.547" layerid="11" id="gge756" locked="0" ><circle cx="4031.811" cy="3359.547" r="4"  stroke-width="1" fill-opacity="0" /></g><polyline points="4173 3256.579 4173 3461.303 4063.158 3461.303 4063.158 3256.579 4173 3256.579" stroke-width="1"  stroke-linecap="round" fill="none" layerid="3" net="" id="gge7" locked="0" /><polyline points="4205 3388.4882 4191.5 3388.4882" stroke-width="0.8"  stroke-linecap="round" fill="none" layerid="3" net="" id="gge228" locked="0" /><polyline points="4191.5 3449.5118 4205 3449.5118" stroke-width="0.8"  stroke-linecap="round" fill="none" layerid="3" net="" id="gge229" locked="0" /><polyline points="4205 3388.4882 4205 3449.5118" stroke-width="0.8"  stroke-linecap="round" fill="none" layerid="3" net="" id="gge230" locked="0" /><polyline points="4204.5 3392 4204.5 3396 4202.5 3396 4202.5 3392 4204.5 3392" stroke-width="1"  stroke-linecap="round" fill="none" layerid="3" net="" id="gge231" locked="0" /><polyline points="4204.5 3442 4204.5 3446 4202.5 3446 4202.5 3442 4204.5 3442" stroke-width="1"  stroke-linecap="round" fill="none" layerid="3" net="" id="gge232" locked="0" /><polyline points="4191.5 3388.4882 4191.5 3449.5118" stroke-width="0.8"  stroke-linecap="round" fill="none" layerid="3" net="" id="gge233" locked="0" /><polyline points="4032.5 3450.0118 4046 3450.0118" stroke-width="0.8"  stroke-linecap="round" fill="none" layerid="3" net="" id="gge270" locked="0" /><polyline points="4046 3388.9882 4032.5 3388.9882" stroke-width="0.8"  stroke-linecap="round" fill="none" layerid="3" net="" id="gge271" locked="0" /><polyline points="4032.5 3450.0118 4032.5 3388.9882" stroke-width="0.8"  stroke-linecap="round" fill="none" layerid="3" net="" id="gge272" locked="0" /><polyline points="4033 3446.5 4033 3442.5 4035 3442.5 4035 3446.5 4033 3446.5" stroke-width="1"  stroke-linecap="round" fill="none" layerid="3" net="" id="gge273" locked="0" /><polyline points="4033 3396.5 4033 3392.5 4035 3392.5 4035 3396.5 4033 3396.5" stroke-width="1"  stroke-linecap="round" fill="none" layerid="3" net="" id="gge274" locked="0" /><polyline points="4046 3450.0118 4046 3388.9882" stroke-width="0.8"  stroke-linecap="round" fill="none" layerid="3" net="" id="gge275" locked="0" /><polyline points="4127.0075 3419.802 4105.9925 3419.802 4105.9925 3343.198 4127.0075 3343.198 4127.0075 3419.802" stroke-width="0.6"  stroke-linecap="round" fill="none" layerid="3" net="" id="gge312" locked="0" /><g c_partid="part_pcbtext" c_etype="" c_origin="4185.79,3409.63" c_rotation="90" c_mirror="0" id="gge3" locked="0" layerid="3" c_shapetype="group" display="none"><path c_fontsize="4.5" c_fontfamily="" c_text="ESP32DEVKITV1" d="M 4181.25 3409.6299 L 4185.54 3409.6299 M 4181.25 3409.6299 L 4181.25 3406.9699 M 4183.29 3409.6299 L 4183.29 3407.9899 M 4185.54 3409.6299 L 4185.54 3406.9699 M 4181.86 3402.7599 L 4181.45 3403.1699 L 4181.25 3403.7799 L 4181.25 3404.5999 L 4181.45 3405.2099 L 4181.86 3405.6199 L 4182.27 3405.6199 L 4182.68 3405.4199 L 4182.89 3405.2099 L 4183.09 3404.7999 L 4183.5 3403.5799 L 4183.7 3403.1699 L 4183.91 3402.9599 L 4184.32 3402.7599 L 4184.93 3402.7599 L 4185.34 3403.1699 L 4185.54 3403.7799 L 4185.54 3404.5999 L 4185.34 3405.2099 L 4184.93 3405.6199 M 4181.25 3401.4099 L 4185.54 3401.4099 M 4181.25 3401.4099 L 4181.25 3399.5699 L 4181.45 3398.9499 L 4181.66 3398.7499 L 4182.07 3398.5399 L 4182.68 3398.5399 L 4183.09 3398.7499 L 4183.29 3398.9499 L 4183.5 3399.5699 L 4183.5 3401.4099 M 4181.25 3396.7799 L 4181.25 3394.5299 L 4182.89 3395.7599 L 4182.89 3395.1499 L 4183.09 3394.7399 L 4183.29 3394.5299 L 4183.91 3394.3299 L 4184.32 3394.3299 L 4184.93 3394.5299 L 4185.34 3394.9399 L 4185.54 3395.5599 L 4185.54 3396.1699 L 4185.34 3396.7799 L 4185.14 3396.9899 L 4184.73 3397.1899 M 4182.27 3392.7799 L 4182.07 3392.7799 L 4181.66 3392.5699 L 4181.45 3392.3699 L 4181.25 3391.9599 L 4181.25 3391.1399 L 4181.45 3390.7299 L 4181.66 3390.5299 L 4182.07 3390.3199 L 4182.48 3390.3199 L 4182.89 3390.5299 L 4183.5 3390.9299 L 4185.54 3392.9799 L 4185.54 3390.1199 M 4181.25 3388.7699 L 4185.54 3388.7699 M 4181.25 3388.7699 L 4181.25 3387.3299 L 4181.45 3386.7199 L 4181.86 3386.3099 L 4182.27 3386.1099 L 4182.89 3385.8999 L 4183.91 3385.8999 L 4184.52 3386.1099 L 4184.93 3386.3099 L 4185.34 3386.7199 L 4185.54 3387.3299 L 4185.54 3388.7699 M 4181.25 3384.5499 L 4185.54 3384.5499 M 4181.25 3384.5499 L 4181.25 3381.8899 M 4183.29 3384.5499 L 4183.29 3382.9199 M 4185.54 3384.5499 L 4185.54 3381.8899 M 4181.25 3380.5399 L 4185.54 3378.9099 M 4181.25 3377.2699 L 4185.54 3378.9099 M 4181.25 3375.9199 L 4185.54 3375.9199 M 4181.25 3373.0599 L 4184.11 3375.9199 M 4183.09 3374.8999 L 4185.54 3373.0599 M 4181.25 3371.7099 L 4185.54 3371.7099 M 4181.25 3368.9299 L 4185.54 3368.9299 M 4181.25 3370.3599 L 4181.25 3367.4899 M 4181.25 3366.1399 L 4185.54 3364.5099 M 4181.25 3362.8699 L 4185.54 3364.5099 M 4182.07 3361.5199 L 4181.86 3361.1099 L 4181.25 3360.4999 L 4185.54 3360.4999" fill="none"  stroke-width="0.6" c_note="note_name" /></g><g c_partid="part_pcbtext" c_etype="" c_origin="4174,3360.5" c_rotation="270" c_mirror="0" id="gge5" locked="0" layerid="3" c_shapetype="group" ><path c_fontsize="4.5" c_fontfamily="" c_text="1" d="M 4177.72 3360.5 L 4177.93 3360.91 L 4178.54 3361.52 L 4174.25 3361.52" fill="none"  stroke-width="0.6" c_note="note_pre" /></g><g c_partid="part_pcbtext" c_etype="" c_origin="4078.906,3297.059" c_rotation="0" c_mirror="0" id="gge8" locked="0" layerid="3" c_shapetype="group" ><path c_fontsize="4" c_fontfamily="" c_text="3V3" d="M 4079.267 3294.875 L 4081.267 3294.875 L 4080.177 3296.335 L 4080.727 3296.335 L 4081.087 3296.515 L 4081.267 3296.695 L 4081.447 3297.245 L 4081.447 3297.605 L 4081.267 3298.145 L 4080.907 3298.515 L 4080.357 3298.695 L 4079.817 3298.695 L 4079.267 3298.515 L 4079.087 3298.335 L 4078.907 3297.965 M 4082.647 3294.875 L 4084.107 3298.695 M 4085.557 3294.875 L 4084.107 3298.695 M 4087.127 3294.875 L 4089.127 3294.875 L 4088.037 3296.335 L 4088.577 3296.335 L 4088.947 3296.515 L 4089.127 3296.695 L 4089.307 3297.245 L 4089.307 3297.605 L 4089.127 3298.145 L 4088.757 3298.515 L 4088.217 3298.695 L 4087.667 3298.695 L 4087.127 3298.515 L 4086.947 3298.335 L 4086.757 3297.965" fill="none"  stroke-width="0.32"  /></g><g c_partid="part_pcbtext" c_etype="" c_origin="4078.906,3307.059" c_rotation="0" c_mirror="0" id="gge10" locked="0" layerid="3" c_shapetype="group" ><path c_fontsize="4" c_fontfamily="" c_text="GND" d="M 4081.637 3305.785 L 4081.447 3305.425 L 4081.087 3305.055 L 4080.727 3304.875 L 4079.997 3304.875 L 4079.637 3305.055 L 4079.267 3305.425 L 4079.087 3305.785 L 4078.907 3306.335 L 4078.907 3307.245 L 4079.087 3307.785 L 4079.267 3308.145 L 4079.637 3308.515 L 4079.997 3308.695 L 4080.727 3308.695 L 4081.087 3308.515 L 4081.447 3308.145 L 4081.637 3307.785 L 4081.637 3307.245 M 4080.727 3307.245 L 4081.637 3307.245 M 4082.837 3304.875 L 4082.837 3308.695 M 4082.837 3304.875 L 4085.377 3308.695 M 4085.377 3304.875 L 4085.377 3308.695 M 4086.577 3304.875 L 4086.577 3308.695 M 4086.577 3304.875 L 4087.847 3304.875 L 4088.397 3305.055 L 4088.757 3305.425 L 4088.947 3305.785 L 4089.127 3306.335 L 4089.127 3307.245 L 4088.947 3307.785 L 4088.757 3308.145 L 4088.397 3308.515 L 4087.847 3308.695 L 4086.577 3308.695" fill="none"  stroke-width="0.32"  /></g><g c_partid="part_pcbtext" c_etype="" c_origin="4078.906,3317.059" c_rotation="0" c_mirror="0" id="gge12" locked="0" layerid="3" c_shapetype="group" ><path c_fontsize="4" c_fontfamily="" c_text="IO15" d="M 4078.907 3314.875 L 4078.907 3318.695 M 4081.197 3314.875 L 4080.837 3315.055 L 4080.467 3315.425 L 4080.287 3315.785 L 4080.107 3316.335 L 4080.107 3317.245 L 4080.287 3317.785 L 4080.467 3318.145 L 4080.837 3318.515 L 4081.197 3318.695 L 4081.927 3318.695 L 4082.287 3318.515 L 4082.647 3318.145 L 4082.837 3317.785 L 4083.017 3317.245 L 4083.017 3316.335 L 4082.837 3315.785 L 4082.647 3315.425 L 4082.287 3315.055 L 4081.927 3314.875 L 4081.197 3314.875 M 4084.217 3315.605 L 4084.577 3315.425 L 4085.127 3314.875 L 4085.127 3318.695 M 4088.507 3314.875 L 4086.687 3314.875 L 4086.507 3316.515 L 4086.687 3316.335 L 4087.237 3316.145 L 4087.777 3316.145 L 4088.327 3316.335 L 4088.687 3316.695 L 4088.867 3317.245 L 4088.867 3317.605 L 4088.687 3318.145 L 4088.327 3318.515 L 4087.777 3318.695 L 4087.237 3318.695 L 4086.687 3318.515 L 4086.507 3318.335 L 4086.327 3317.965" fill="none"  stroke-width="0.32"  /></g><g c_partid="part_pcbtext" c_etype="" c_origin="4078.906,3327.059" c_rotation="0" c_mirror="0" id="gge14" locked="0" layerid="3" c_shapetype="group" ><path c_fontsize="4" c_fontfamily="" c_text="IO2" d="M 4078.907 3324.875 L 4078.907 3328.695 M 4081.197 3324.875 L 4080.837 3325.055 L 4080.467 3325.425 L 4080.287 3325.785 L 4080.107 3326.335 L 4080.107 3327.245 L 4080.287 3327.785 L 4080.467 3328.145 L 4080.837 3328.515 L 4081.197 3328.695 L 4081.927 3328.695 L 4082.287 3328.515 L 4082.647 3328.145 L 4082.837 3327.785 L 4083.017 3327.245 L 4083.017 3326.335 L 4082.837 3325.785 L 4082.647 3325.425 L 4082.287 3325.055 L 4081.927 3324.875 L 4081.197 3324.875 M 4084.397 3325.785 L 4084.397 3325.605 L 4084.577 3325.245 L 4084.757 3325.055 L 4085.127 3324.875 L 4085.847 3324.875 L 4086.217 3325.055 L 4086.397 3325.245 L 4086.577 3325.605 L 4086.577 3325.965 L 4086.397 3326.335 L 4086.037 3326.875 L 4084.217 3328.695 L 4086.757 3328.695" fill="none"  stroke-width="0.32"  /></g><g c_partid="part_pcbtext" c_etype="" c_origin="4078.906,3337.059" c_rotation="0" c_mirror="0" id="gge16" locked="0" layerid="3" c_shapetype="group" ><path c_fontsize="4" c_fontfamily="" c_text="IO4" d="M 4078.907 3334.875 L 4078.907 3338.695 M 4081.197 3334.875 L 4080.837 3335.055 L 4080.467 3335.425 L 4080.287 3335.785 L 4080.107 3336.335 L 4080.107 3337.245 L 4080.287 3337.785 L 4080.467 3338.145 L 4080.837 3338.515 L 4081.197 3338.695 L 4081.927 3338.695 L 4082.287 3338.515 L 4082.647 3338.145 L 4082.837 3337.785 L 4083.017 3337.245 L 4083.017 3336.335 L 4082.837 3335.785 L 4082.647 3335.425 L 4082.287 3335.055 L 4081.927 3334.875 L 4081.197 3334.875 M 4086.037 3334.875 L 4084.217 3337.425 L 4086.947 3337.425 M 4086.037 3334.875 L 4086.037 3338.695" fill="none"  stroke-width="0.32"  /></g><g c_partid="part_pcbtext" c_etype="" c_origin="4078.906,3347.059" c_rotation="0" c_mirror="0" id="gge18" locked="0" layerid="3" c_shapetype="group" ><path c_fontsize="4" c_fontfamily="" c_text="IO16" d="M 4078.907 3344.875 L 4078.907 3348.695 M 4081.197 3344.875 L 4080.837 3345.055 L 4080.467 3345.425 L 4080.287 3345.785 L 4080.107 3346.335 L 4080.107 3347.245 L 4080.287 3347.785 L 4080.467 3348.145 L 4080.837 3348.515 L 4081.197 3348.695 L 4081.927 3348.695 L 4082.287 3348.515 L 4082.647 3348.145 L 4082.837 3347.785 L 4083.017 3347.245 L 4083.017 3346.335 L 4082.837 3345.785 L 4082.647 3345.425 L 4082.287 3345.055 L 4081.927 3344.875 L 4081.197 3344.875 M 4084.217 3345.605 L 4084.577 3345.425 L 4085.127 3344.875 L 4085.127 3348.695 M 4088.507 3345.425 L 4088.327 3345.055 L 4087.777 3344.875 L 4087.417 3344.875 L 4086.867 3345.055 L 4086.507 3345.605 L 4086.327 3346.515 L 4086.327 3347.425 L 4086.507 3348.145 L 4086.867 3348.515 L 4087.417 3348.695 L 4087.597 3348.695 L 4088.147 3348.515 L 4088.507 3348.145 L 4088.687 3347.605 L 4088.687 3347.425 L 4088.507 3346.875 L 4088.147 3346.515 L 4087.597 3346.335 L 4087.417 3346.335 L 4086.867 3346.515 L 4086.507 3346.875 L 4086.327 3347.425" fill="none"  stroke-width="0.32"  /></g><g c_partid="part_pcbtext" c_etype="" c_origin="4078.906,3357.059" c_rotation="0" c_mirror="0" id="gge20" locked="0" layerid="3" c_shapetype="group" ><path c_fontsize="4" c_fontfamily="" c_text="IO17" d="M 4078.907 3354.875 L 4078.907 3358.695 M 4081.197 3354.875 L 4080.837 3355.055 L 4080.467 3355.425 L 4080.287 3355.785 L 4080.107 3356.335 L 4080.107 3357.245 L 4080.287 3357.785 L 4080.467 3358.145 L 4080.837 3358.515 L 4081.197 3358.695 L 4081.927 3358.695 L 4082.287 3358.515 L 4082.647 3358.145 L 4082.837 3357.785 L 4083.017 3357.245 L 4083.017 3356.335 L 4082.837 3355.785 L 4082.647 3355.425 L 4082.287 3355.055 L 4081.927 3354.875 L 4081.197 3354.875 M 4084.217 3355.605 L 4084.577 3355.425 L 4085.127 3354.875 L 4085.127 3358.695 M 4088.867 3354.875 L 4087.047 3358.695 M 4086.327 3354.875 L 4088.867 3354.875" fill="none"  stroke-width="0.32"  /></g><g c_partid="part_pcbtext" c_etype="" c_origin="4078.906,3367.059" c_rotation="0" c_mirror="0" id="gge22" locked="0" layerid="3" c_shapetype="group" ><path c_fontsize="4" c_fontfamily="" c_text="IO5" d="M 4078.907 3364.875 L 4078.907 3368.695 M 4081.197 3364.875 L 4080.837 3365.055 L 4080.467 3365.425 L 4080.287 3365.785 L 4080.107 3366.335 L 4080.107 3367.245 L 4080.287 3367.785 L 4080.467 3368.145 L 4080.837 3368.515 L 4081.197 3368.695 L 4081.927 3368.695 L 4082.287 3368.515 L 4082.647 3368.145 L 4082.837 3367.785 L 4083.017 3367.245 L 4083.017 3366.335 L 4082.837 3365.785 L 4082.647 3365.425 L 4082.287 3365.055 L 4081.927 3364.875 L 4081.197 3364.875 M 4086.397 3364.875 L 4084.577 3364.875 L 4084.397 3366.515 L 4084.577 3366.335 L 4085.127 3366.145 L 4085.667 3366.145 L 4086.217 3366.335 L 4086.577 3366.695 L 4086.757 3367.245 L 4086.757 3367.605 L 4086.577 3368.145 L 4086.217 3368.515 L 4085.667 3368.695 L 4085.127 3368.695 L 4084.577 3368.515 L 4084.397 3368.335 L 4084.217 3367.965" fill="none"  stroke-width="0.32"  /></g><g c_partid="part_pcbtext" c_etype="" c_origin="4078.906,3377.059" c_rotation="0" c_mirror="0" id="gge24" locked="0" layerid="3" c_shapetype="group" ><path c_fontsize="4" c_fontfamily="" c_text="IO18" d="M 4078.907 3374.875 L 4078.907 3378.695 M 4081.197 3374.875 L 4080.837 3375.055 L 4080.467 3375.425 L 4080.287 3375.785 L 4080.107 3376.335 L 4080.107 3377.245 L 4080.287 3377.785 L 4080.467 3378.145 L 4080.837 3378.515 L 4081.197 3378.695 L 4081.927 3378.695 L 4082.287 3378.515 L 4082.647 3378.145 L 4082.837 3377.785 L 4083.017 3377.245 L 4083.017 3376.335 L 4082.837 3375.785 L 4082.647 3375.425 L 4082.287 3375.055 L 4081.927 3374.875 L 4081.197 3374.875 M 4084.217 3375.605 L 4084.577 3375.425 L 4085.127 3374.875 L 4085.127 3378.695 M 4087.237 3374.875 L 4086.687 3375.055 L 4086.507 3375.425 L 4086.507 3375.785 L 4086.687 3376.145 L 4087.047 3376.335 L 4087.777 3376.515 L 4088.327 3376.695 L 4088.687 3377.055 L 4088.867 3377.425 L 4088.867 3377.965 L 4088.687 3378.335 L 4088.507 3378.515 L 4087.957 3378.695 L 4087.237 3378.695 L 4086.687 3378.515 L 4086.507 3378.335 L 4086.327 3377.965 L 4086.327 3377.425 L 4086.507 3377.055 L 4086.867 3376.695 L 4087.417 3376.515 L 4088.147 3376.335 L 4088.507 3376.145 L 4088.687 3375.785 L 4088.687 3375.425 L 4088.507 3375.055 L 4087.957 3374.875 L 4087.237 3374.875" fill="none"  stroke-width="0.32"  /></g><g c_partid="part_pcbtext" c_etype="" c_origin="4078.906,3387.059" c_rotation="0" c_mirror="0" id="gge26" locked="0" layerid="3" c_shapetype="group" ><path c_fontsize="4" c_fontfamily="" c_text="IO19" d="M 4078.907 3384.875 L 4078.907 3388.695 M 4081.197 3384.875 L 4080.837 3385.055 L 4080.467 3385.425 L 4080.287 3385.785 L 4080.107 3386.335 L 4080.107 3387.245 L 4080.287 3387.785 L 4080.467 3388.145 L 4080.837 3388.515 L 4081.197 3388.695 L 4081.927 3388.695 L 4082.287 3388.515 L 4082.647 3388.145 L 4082.837 3387.785 L 4083.017 3387.245 L 4083.017 3386.335 L 4082.837 3385.785 L 4082.647 3385.425 L 4082.287 3385.055 L 4081.927 3384.875 L 4081.197 3384.875 M 4084.217 3385.605 L 4084.577 3385.425 L 4085.127 3384.875 L 4085.127 3388.695 M 4088.687 3386.145 L 4088.507 3386.695 L 4088.147 3387.055 L 4087.597 3387.245 L 4087.417 3387.245 L 4086.867 3387.055 L 4086.507 3386.695 L 4086.327 3386.145 L 4086.327 3385.965 L 4086.507 3385.425 L 4086.867 3385.055 L 4087.417 3384.875 L 4087.597 3384.875 L 4088.147 3385.055 L 4088.507 3385.425 L 4088.687 3386.145 L 4088.687 3387.055 L 4088.507 3387.965 L 4088.147 3388.515 L 4087.597 3388.695 L 4087.237 3388.695 L 4086.687 3388.515 L 4086.507 3388.145" fill="none"  stroke-width="0.32"  /></g><g c_partid="part_pcbtext" c_etype="" c_origin="4078.906,3397.059" c_rotation="0" c_mirror="0" id="gge28" locked="0" layerid="3" c_shapetype="group" ><path c_fontsize="4" c_fontfamily="" c_text="IO21" d="M 4078.907 3394.875 L 4078.907 3398.695 M 4081.197 3394.875 L 4080.837 3395.055 L 4080.467 3395.425 L 4080.287 3395.785 L 4080.107 3396.335 L 4080.107 3397.245 L 4080.287 3397.785 L 4080.467 3398.145 L 4080.837 3398.515 L 4081.197 3398.695 L 4081.927 3398.695 L 4082.287 3398.515 L 4082.647 3398.145 L 4082.837 3397.785 L 4083.017 3397.245 L 4083.017 3396.335 L 4082.837 3395.785 L 4082.647 3395.425 L 4082.287 3395.055 L 4081.927 3394.875 L 4081.197 3394.875 M 4084.397 3395.785 L 4084.397 3395.605 L 4084.577 3395.245 L 4084.757 3395.055 L 4085.127 3394.875 L 4085.847 3394.875 L 4086.217 3395.055 L 4086.397 3395.245 L 4086.577 3395.605 L 4086.577 3395.965 L 4086.397 3396.335 L 4086.037 3396.875 L 4084.217 3398.695 L 4086.757 3398.695 M 4087.957 3395.605 L 4088.327 3395.425 L 4088.867 3394.875 L 4088.867 3398.695" fill="none"  stroke-width="0.32"  /></g><g c_partid="part_pcbtext" c_etype="" c_origin="4078.906,3407.059" c_rotation="0" c_mirror="0" id="gge30" locked="0" layerid="3" c_shapetype="group" ><path c_fontsize="4" c_fontfamily="" c_text="IO3" d="M 4078.907 3404.875 L 4078.907 3408.695 M 4081.197 3404.875 L 4080.837 3405.055 L 4080.467 3405.425 L 4080.287 3405.785 L 4080.107 3406.335 L 4080.107 3407.245 L 4080.287 3407.785 L 4080.467 3408.145 L 4080.837 3408.515 L 4081.197 3408.695 L 4081.927 3408.695 L 4082.287 3408.515 L 4082.647 3408.145 L 4082.837 3407.785 L 4083.017 3407.245 L 4083.017 3406.335 L 4082.837 3405.785 L 4082.647 3405.425 L 4082.287 3405.055 L 4081.927 3404.875 L 4081.197 3404.875 M 4084.577 3404.875 L 4086.577 3404.875 L 4085.487 3406.335 L 4086.037 3406.335 L 4086.397 3406.515 L 4086.577 3406.695 L 4086.757 3407.245 L 4086.757 3407.605 L 4086.577 3408.145 L 4086.217 3408.515 L 4085.667 3408.695 L 4085.127 3408.695 L 4084.577 3408.515 L 4084.397 3408.335 L 4084.217 3407.965" fill="none"  stroke-width="0.32"  /></g><g c_partid="part_pcbtext" c_etype="" c_origin="4078.906,3417.059" c_rotation="0" c_mirror="0" id="gge32" locked="0" layerid="3" c_shapetype="group" ><path c_fontsize="4" c_fontfamily="" c_text="IO1" d="M 4078.907 3414.875 L 4078.907 3418.695 M 4081.197 3414.875 L 4080.837 3415.055 L 4080.467 3415.425 L 4080.287 3415.785 L 4080.107 3416.335 L 4080.107 3417.245 L 4080.287 3417.785 L 4080.467 3418.145 L 4080.837 3418.515 L 4081.197 3418.695 L 4081.927 3418.695 L 4082.287 3418.515 L 4082.647 3418.145 L 4082.837 3417.785 L 4083.017 3417.245 L 4083.017 3416.335 L 4082.837 3415.785 L 4082.647 3415.425 L 4082.287 3415.055 L 4081.927 3414.875 L 4081.197 3414.875 M 4084.217 3415.605 L 4084.577 3415.425 L 4085.127 3414.875 L 4085.127 3418.695" fill="none"  stroke-width="0.32"  /></g><g c_partid="part_pcbtext" c_etype="" c_origin="4078.906,3427.059" c_rotation="0" c_mirror="0" id="gge34" locked="0" layerid="3" c_shapetype="group" ><path c_fontsize="4" c_fontfamily="" c_text="IO22" d="M 4078.907 3424.875 L 4078.907 3428.695 M 4081.197 3424.875 L 4080.837 3425.055 L 4080.467 3425.425 L 4080.287 3425.785 L 4080.107 3426.335 L 4080.107 3427.245 L 4080.287 3427.785 L 4080.467 3428.145 L 4080.837 3428.515 L 4081.197 3428.695 L 4081.927 3428.695 L 4082.287 3428.515 L 4082.647 3428.145 L 4082.837 3427.785 L 4083.017 3427.245 L 4083.017 3426.335 L 4082.837 3425.785 L 4082.647 3425.425 L 4082.287 3425.055 L 4081.927 3424.875 L 4081.197 3424.875 M 4084.397 3425.785 L 4084.397 3425.605 L 4084.577 3425.245 L 4084.757 3425.055 L 4085.127 3424.875 L 4085.847 3424.875 L 4086.217 3425.055 L 4086.397 3425.245 L 4086.577 3425.605 L 4086.577 3425.965 L 4086.397 3426.335 L 4086.037 3426.875 L 4084.217 3428.695 L 4086.757 3428.695 M 4088.147 3425.785 L 4088.147 3425.605 L 4088.327 3425.245 L 4088.507 3425.055 L 4088.867 3424.875 L 4089.597 3424.875 L 4089.957 3425.055 L 4090.147 3425.245 L 4090.327 3425.605 L 4090.327 3425.965 L 4090.147 3426.335 L 4089.777 3426.875 L 4087.957 3428.695 L 4090.507 3428.695" fill="none"  stroke-width="0.32"  /></g><g c_partid="part_pcbtext" c_etype="" c_origin="4078.906,3437.059" c_rotation="0" c_mirror="0" id="gge36" locked="0" layerid="3" c_shapetype="group" ><path c_fontsize="4" c_fontfamily="" c_text="IO23" d="M 4078.907 3434.875 L 4078.907 3438.695 M 4081.197 3434.875 L 4080.837 3435.055 L 4080.467 3435.425 L 4080.287 3435.785 L 4080.107 3436.335 L 4080.107 3437.245 L 4080.287 3437.785 L 4080.467 3438.145 L 4080.837 3438.515 L 4081.197 3438.695 L 4081.927 3438.695 L 4082.287 3438.515 L 4082.647 3438.145 L 4082.837 3437.785 L 4083.017 3437.245 L 4083.017 3436.335 L 4082.837 3435.785 L 4082.647 3435.425 L 4082.287 3435.055 L 4081.927 3434.875 L 4081.197 3434.875 M 4084.397 3435.785 L 4084.397 3435.605 L 4084.577 3435.245 L 4084.757 3435.055 L 4085.127 3434.875 L 4085.847 3434.875 L 4086.217 3435.055 L 4086.397 3435.245 L 4086.577 3435.605 L 4086.577 3435.965 L 4086.397 3436.335 L 4086.037 3436.875 L 4084.217 3438.695 L 4086.757 3438.695 M 4088.327 3434.875 L 4090.327 3434.875 L 4089.237 3436.335 L 4089.777 3436.335 L 4090.147 3436.515 L 4090.327 3436.695 L 4090.507 3437.245 L 4090.507 3437.605 L 4090.327 3438.145 L 4089.957 3438.515 L 4089.417 3438.695 L 4088.867 3438.695 L 4088.327 3438.515 L 4088.147 3438.335 L 4087.957 3437.965" fill="none"  stroke-width="0.32"  /></g><g c_partid="part_pcbtext" c_etype="" c_origin="4148.669,3297.138" c_rotation="0" c_mirror="0" id="gge38" locked="0" layerid="3" c_shapetype="group" ><path c_fontsize="4" c_fontfamily="" c_text="VIN" d="M 4148.671 3294.957 L 4150.121 3298.777 M 4151.581 3294.957 L 4150.121 3298.777 M 4152.781 3294.957 L 4152.781 3298.777 M 4153.981 3294.957 L 4153.981 3298.777 M 4153.981 3294.957 L 4156.521 3298.777 M 4156.521 3294.957 L 4156.521 3298.777" fill="none"  stroke-width="0.32"  /></g><g c_partid="part_pcbtext" c_etype="" c_origin="4148.669,3307.138" c_rotation="0" c_mirror="0" id="gge40" locked="0" layerid="3" c_shapetype="group" ><path c_fontsize="4" c_fontfamily="" c_text="GND" d="M 4151.401 3305.867 L 4151.211 3305.497 L 4150.851 3305.137 L 4150.491 3304.957 L 4149.761 3304.957 L 4149.401 3305.137 L 4149.031 3305.497 L 4148.851 3305.867 L 4148.671 3306.407 L 4148.671 3307.317 L 4148.851 3307.867 L 4149.031 3308.227 L 4149.401 3308.597 L 4149.761 3308.777 L 4150.491 3308.777 L 4150.851 3308.597 L 4151.211 3308.227 L 4151.401 3307.867 L 4151.401 3307.317 M 4150.491 3307.317 L 4151.401 3307.317 M 4152.601 3304.957 L 4152.601 3308.777 M 4152.601 3304.957 L 4155.141 3308.777 M 4155.141 3304.957 L 4155.141 3308.777 M 4156.341 3304.957 L 4156.341 3308.777 M 4156.341 3304.957 L 4157.611 3304.957 L 4158.161 3305.137 L 4158.521 3305.497 L 4158.701 3305.867 L 4158.891 3306.407 L 4158.891 3307.317 L 4158.701 3307.867 L 4158.521 3308.227 L 4158.161 3308.597 L 4157.611 3308.777 L 4156.341 3308.777" fill="none"  stroke-width="0.32"  /></g><g c_partid="part_pcbtext" c_etype="" c_origin="4148.669,3317.138" c_rotation="0" c_mirror="0" id="gge42" locked="0" layerid="3" c_shapetype="group" ><path c_fontsize="4" c_fontfamily="" c_text="IO13" d="M 4148.671 3314.957 L 4148.671 3318.777 M 4150.961 3314.957 L 4150.601 3315.137 L 4150.231 3315.497 L 4150.051 3315.867 L 4149.871 3316.407 L 4149.871 3317.317 L 4150.051 3317.867 L 4150.231 3318.227 L 4150.601 3318.597 L 4150.961 3318.777 L 4151.691 3318.777 L 4152.051 3318.597 L 4152.411 3318.227 L 4152.601 3317.867 L 4152.781 3317.317 L 4152.781 3316.407 L 4152.601 3315.867 L 4152.411 3315.497 L 4152.051 3315.137 L 4151.691 3314.957 L 4150.961 3314.957 M 4153.981 3315.687 L 4154.341 3315.497 L 4154.891 3314.957 L 4154.891 3318.777 M 4156.451 3314.957 L 4158.451 3314.957 L 4157.361 3316.407 L 4157.901 3316.407 L 4158.271 3316.597 L 4158.451 3316.777 L 4158.631 3317.317 L 4158.631 3317.687 L 4158.451 3318.227 L 4158.091 3318.597 L 4157.541 3318.777 L 4157.001 3318.777 L 4156.451 3318.597 L 4156.271 3318.407 L 4156.091 3318.047" fill="none"  stroke-width="0.32"  /></g><g c_partid="part_pcbtext" c_etype="" c_origin="4148.669,3327.138" c_rotation="0" c_mirror="0" id="gge44" locked="0" layerid="3" c_shapetype="group" ><path c_fontsize="4" c_fontfamily="" c_text="IO12" d="M 4148.671 3324.957 L 4148.671 3328.777 M 4150.961 3324.957 L 4150.601 3325.137 L 4150.231 3325.497 L 4150.051 3325.867 L 4149.871 3326.407 L 4149.871 3327.317 L 4150.051 3327.867 L 4150.231 3328.227 L 4150.601 3328.597 L 4150.961 3328.777 L 4151.691 3328.777 L 4152.051 3328.597 L 4152.411 3328.227 L 4152.601 3327.867 L 4152.781 3327.317 L 4152.781 3326.407 L 4152.601 3325.867 L 4152.411 3325.497 L 4152.051 3325.137 L 4151.691 3324.957 L 4150.961 3324.957 M 4153.981 3325.687 L 4154.341 3325.497 L 4154.891 3324.957 L 4154.891 3328.777 M 4156.271 3325.867 L 4156.271 3325.687 L 4156.451 3325.317 L 4156.631 3325.137 L 4157.001 3324.957 L 4157.721 3324.957 L 4158.091 3325.137 L 4158.271 3325.317 L 4158.451 3325.687 L 4158.451 3326.047 L 4158.271 3326.407 L 4157.901 3326.957 L 4156.091 3328.777 L 4158.631 3328.777" fill="none"  stroke-width="0.32"  /></g><g c_partid="part_pcbtext" c_etype="" c_origin="4148.669,3337.138" c_rotation="0" c_mirror="0" id="gge46" locked="0" layerid="3" c_shapetype="group" ><path c_fontsize="4" c_fontfamily="" c_text="IO14" d="M 4148.671 3334.957 L 4148.671 3338.777 M 4150.961 3334.957 L 4150.601 3335.137 L 4150.231 3335.497 L 4150.051 3335.867 L 4149.871 3336.407 L 4149.871 3337.317 L 4150.051 3337.867 L 4150.231 3338.227 L 4150.601 3338.597 L 4150.961 3338.777 L 4151.691 3338.777 L 4152.051 3338.597 L 4152.411 3338.227 L 4152.601 3337.867 L 4152.781 3337.317 L 4152.781 3336.407 L 4152.601 3335.867 L 4152.411 3335.497 L 4152.051 3335.137 L 4151.691 3334.957 L 4150.961 3334.957 M 4153.981 3335.687 L 4154.341 3335.497 L 4154.891 3334.957 L 4154.891 3338.777 M 4157.901 3334.957 L 4156.091 3337.497 L 4158.811 3337.497 M 4157.901 3334.957 L 4157.901 3338.777" fill="none"  stroke-width="0.32"  /></g><g c_partid="part_pcbtext" c_etype="" c_origin="4148.669,3347.138" c_rotation="0" c_mirror="0" id="gge48" locked="0" layerid="3" c_shapetype="group" ><path c_fontsize="4" c_fontfamily="" c_text="IO27" d="M 4148.671 3344.957 L 4148.671 3348.777 M 4150.961 3344.957 L 4150.601 3345.137 L 4150.231 3345.497 L 4150.051 3345.867 L 4149.871 3346.407 L 4149.871 3347.317 L 4150.051 3347.867 L 4150.231 3348.227 L 4150.601 3348.597 L 4150.961 3348.777 L 4151.691 3348.777 L 4152.051 3348.597 L 4152.411 3348.227 L 4152.601 3347.867 L 4152.781 3347.317 L 4152.781 3346.407 L 4152.601 3345.867 L 4152.411 3345.497 L 4152.051 3345.137 L 4151.691 3344.957 L 4150.961 3344.957 M 4154.161 3345.867 L 4154.161 3345.687 L 4154.341 3345.317 L 4154.521 3345.137 L 4154.891 3344.957 L 4155.611 3344.957 L 4155.981 3345.137 L 4156.161 3345.317 L 4156.341 3345.687 L 4156.341 3346.047 L 4156.161 3346.407 L 4155.801 3346.957 L 4153.981 3348.777 L 4156.521 3348.777 M 4160.271 3344.957 L 4158.451 3348.777 M 4157.721 3344.957 L 4160.271 3344.957" fill="none"  stroke-width="0.32"  /></g><g c_partid="part_pcbtext" c_etype="" c_origin="4148.669,3357.138" c_rotation="0" c_mirror="0" id="gge50" locked="0" layerid="3" c_shapetype="group" ><path c_fontsize="4" c_fontfamily="" c_text="IO26" d="M 4148.671 3354.957 L 4148.671 3358.777 M 4150.961 3354.957 L 4150.601 3355.137 L 4150.231 3355.497 L 4150.051 3355.867 L 4149.871 3356.407 L 4149.871 3357.317 L 4150.051 3357.867 L 4150.231 3358.227 L 4150.601 3358.597 L 4150.961 3358.777 L 4151.691 3358.777 L 4152.051 3358.597 L 4152.411 3358.227 L 4152.601 3357.867 L 4152.781 3357.317 L 4152.781 3356.407 L 4152.601 3355.867 L 4152.411 3355.497 L 4152.051 3355.137 L 4151.691 3354.957 L 4150.961 3354.957 M 4154.161 3355.867 L 4154.161 3355.687 L 4154.341 3355.317 L 4154.521 3355.137 L 4154.891 3354.957 L 4155.611 3354.957 L 4155.981 3355.137 L 4156.161 3355.317 L 4156.341 3355.687 L 4156.341 3356.047 L 4156.161 3356.407 L 4155.801 3356.957 L 4153.981 3358.777 L 4156.521 3358.777 M 4159.901 3355.497 L 4159.721 3355.137 L 4159.181 3354.957 L 4158.811 3354.957 L 4158.271 3355.137 L 4157.901 3355.687 L 4157.721 3356.597 L 4157.721 3357.497 L 4157.901 3358.227 L 4158.271 3358.597 L 4158.811 3358.777 L 4159.001 3358.777 L 4159.541 3358.597 L 4159.901 3358.227 L 4160.091 3357.687 L 4160.091 3357.497 L 4159.901 3356.957 L 4159.541 3356.597 L 4159.001 3356.407 L 4158.811 3356.407 L 4158.271 3356.597 L 4157.901 3356.957 L 4157.721 3357.497" fill="none"  stroke-width="0.32"  /></g><g c_partid="part_pcbtext" c_etype="" c_origin="4148.669,3367.138" c_rotation="0" c_mirror="0" id="gge52" locked="0" layerid="3" c_shapetype="group" ><path c_fontsize="4" c_fontfamily="" c_text="IO25" d="M 4148.671 3364.957 L 4148.671 3368.777 M 4150.961 3364.957 L 4150.601 3365.137 L 4150.231 3365.497 L 4150.051 3365.867 L 4149.871 3366.407 L 4149.871 3367.317 L 4150.051 3367.867 L 4150.231 3368.227 L 4150.601 3368.597 L 4150.961 3368.777 L 4151.691 3368.777 L 4152.051 3368.597 L 4152.411 3368.227 L 4152.601 3367.867 L 4152.781 3367.317 L 4152.781 3366.407 L 4152.601 3365.867 L 4152.411 3365.497 L 4152.051 3365.137 L 4151.691 3364.957 L 4150.961 3364.957 M 4154.161 3365.867 L 4154.161 3365.687 L 4154.341 3365.317 L 4154.521 3365.137 L 4154.891 3364.957 L 4155.611 3364.957 L 4155.981 3365.137 L 4156.161 3365.317 L 4156.341 3365.687 L 4156.341 3366.047 L 4156.161 3366.407 L 4155.801 3366.957 L 4153.981 3368.777 L 4156.521 3368.777 M 4159.901 3364.957 L 4158.091 3364.957 L 4157.901 3366.597 L 4158.091 3366.407 L 4158.631 3366.227 L 4159.181 3366.227 L 4159.721 3366.407 L 4160.091 3366.777 L 4160.271 3367.317 L 4160.271 3367.687 L 4160.091 3368.227 L 4159.721 3368.597 L 4159.181 3368.777 L 4158.631 3368.777 L 4158.091 3368.597 L 4157.901 3368.407 L 4157.721 3368.047" fill="none"  stroke-width="0.32"  /></g><g c_partid="part_pcbtext" c_etype="" c_origin="4148.669,3377.138" c_rotation="0" c_mirror="0" id="gge54" locked="0" layerid="3" c_shapetype="group" ><path c_fontsize="4" c_fontfamily="" c_text="IO33" d="M 4148.671 3374.957 L 4148.671 3378.777 M 4150.961 3374.957 L 4150.601 3375.137 L 4150.231 3375.497 L 4150.051 3375.867 L 4149.871 3376.407 L 4149.871 3377.317 L 4150.051 3377.867 L 4150.231 3378.227 L 4150.601 3378.597 L 4150.961 3378.777 L 4151.691 3378.777 L 4152.051 3378.597 L 4152.411 3378.227 L 4152.601 3377.867 L 4152.781 3377.317 L 4152.781 3376.407 L 4152.601 3375.867 L 4152.411 3375.497 L 4152.051 3375.137 L 4151.691 3374.957 L 4150.961 3374.957 M 4154.341 3374.957 L 4156.341 3374.957 L 4155.251 3376.407 L 4155.801 3376.407 L 4156.161 3376.597 L 4156.341 3376.777 L 4156.521 3377.317 L 4156.521 3377.687 L 4156.341 3378.227 L 4155.981 3378.597 L 4155.431 3378.777 L 4154.891 3378.777 L 4154.341 3378.597 L 4154.161 3378.407 L 4153.981 3378.047 M 4158.091 3374.957 L 4160.091 3374.957 L 4159.001 3376.407 L 4159.541 3376.407 L 4159.901 3376.597 L 4160.091 3376.777 L 4160.271 3377.317 L 4160.271 3377.687 L 4160.091 3378.227 L 4159.721 3378.597 L 4159.181 3378.777 L 4158.631 3378.777 L 4158.091 3378.597 L 4157.901 3378.407 L 4157.721 3378.047" fill="none"  stroke-width="0.32"  /></g><g c_partid="part_pcbtext" c_etype="" c_origin="4148.669,3387.138" c_rotation="0" c_mirror="0" id="gge56" locked="0" layerid="3" c_shapetype="group" ><path c_fontsize="4" c_fontfamily="" c_text="IO32" d="M 4148.671 3384.957 L 4148.671 3388.777 M 4150.961 3384.957 L 4150.601 3385.137 L 4150.231 3385.497 L 4150.051 3385.867 L 4149.871 3386.407 L 4149.871 3387.317 L 4150.051 3387.867 L 4150.231 3388.227 L 4150.601 3388.597 L 4150.961 3388.777 L 4151.691 3388.777 L 4152.051 3388.597 L 4152.411 3388.227 L 4152.601 3387.867 L 4152.781 3387.317 L 4152.781 3386.407 L 4152.601 3385.867 L 4152.411 3385.497 L 4152.051 3385.137 L 4151.691 3384.957 L 4150.961 3384.957 M 4154.341 3384.957 L 4156.341 3384.957 L 4155.251 3386.407 L 4155.801 3386.407 L 4156.161 3386.597 L 4156.341 3386.777 L 4156.521 3387.317 L 4156.521 3387.687 L 4156.341 3388.227 L 4155.981 3388.597 L 4155.431 3388.777 L 4154.891 3388.777 L 4154.341 3388.597 L 4154.161 3388.407 L 4153.981 3388.047 M 4157.901 3385.867 L 4157.901 3385.687 L 4158.091 3385.317 L 4158.271 3385.137 L 4158.631 3384.957 L 4159.361 3384.957 L 4159.721 3385.137 L 4159.901 3385.317 L 4160.091 3385.687 L 4160.091 3386.047 L 4159.901 3386.407 L 4159.541 3386.957 L 4157.721 3388.777 L 4160.271 3388.777" fill="none"  stroke-width="0.32"  /></g><g c_partid="part_pcbtext" c_etype="" c_origin="4148.669,3397.138" c_rotation="0" c_mirror="0" id="gge58" locked="0" layerid="3" c_shapetype="group" ><path c_fontsize="4" c_fontfamily="" c_text="IO35" d="M 4148.671 3394.957 L 4148.671 3398.777 M 4150.961 3394.957 L 4150.601 3395.137 L 4150.231 3395.497 L 4150.051 3395.867 L 4149.871 3396.407 L 4149.871 3397.317 L 4150.051 3397.867 L 4150.231 3398.227 L 4150.601 3398.597 L 4150.961 3398.777 L 4151.691 3398.777 L 4152.051 3398.597 L 4152.411 3398.227 L 4152.601 3397.867 L 4152.781 3397.317 L 4152.781 3396.407 L 4152.601 3395.867 L 4152.411 3395.497 L 4152.051 3395.137 L 4151.691 3394.957 L 4150.961 3394.957 M 4154.341 3394.957 L 4156.341 3394.957 L 4155.251 3396.407 L 4155.801 3396.407 L 4156.161 3396.597 L 4156.341 3396.777 L 4156.521 3397.317 L 4156.521 3397.687 L 4156.341 3398.227 L 4155.981 3398.597 L 4155.431 3398.777 L 4154.891 3398.777 L 4154.341 3398.597 L 4154.161 3398.407 L 4153.981 3398.047 M 4159.901 3394.957 L 4158.091 3394.957 L 4157.901 3396.597 L 4158.091 3396.407 L 4158.631 3396.227 L 4159.181 3396.227 L 4159.721 3396.407 L 4160.091 3396.777 L 4160.271 3397.317 L 4160.271 3397.687 L 4160.091 3398.227 L 4159.721 3398.597 L 4159.181 3398.777 L 4158.631 3398.777 L 4158.091 3398.597 L 4157.901 3398.407 L 4157.721 3398.047" fill="none"  stroke-width="0.32"  /></g><g c_partid="part_pcbtext" c_etype="" c_origin="4148.669,3407.138" c_rotation="0" c_mirror="0" id="gge60" locked="0" layerid="3" c_shapetype="group" ><path c_fontsize="4" c_fontfamily="" c_text="IO34" d="M 4148.671 3404.957 L 4148.671 3408.777 M 4150.961 3404.957 L 4150.601 3405.137 L 4150.231 3405.497 L 4150.051 3405.867 L 4149.871 3406.407 L 4149.871 3407.317 L 4150.051 3407.867 L 4150.231 3408.227 L 4150.601 3408.597 L 4150.961 3408.777 L 4151.691 3408.777 L 4152.051 3408.597 L 4152.411 3408.227 L 4152.601 3407.867 L 4152.781 3407.317 L 4152.781 3406.407 L 4152.601 3405.867 L 4152.411 3405.497 L 4152.051 3405.137 L 4151.691 3404.957 L 4150.961 3404.957 M 4154.341 3404.957 L 4156.341 3404.957 L 4155.251 3406.407 L 4155.801 3406.407 L 4156.161 3406.597 L 4156.341 3406.777 L 4156.521 3407.317 L 4156.521 3407.687 L 4156.341 3408.227 L 4155.981 3408.597 L 4155.431 3408.777 L 4154.891 3408.777 L 4154.341 3408.597 L 4154.161 3408.407 L 4153.981 3408.047 M 4159.541 3404.957 L 4157.721 3407.497 L 4160.451 3407.497 M 4159.541 3404.957 L 4159.541 3408.777" fill="none"  stroke-width="0.32"  /></g><g c_partid="part_pcbtext" c_etype="" c_origin="4148.669,3417.138" c_rotation="0" c_mirror="0" id="gge62" locked="0" layerid="3" c_shapetype="group" ><path c_fontsize="4" c_fontfamily="" c_text="VN" d="M 4148.671 3414.957 L 4150.121 3418.777 M 4151.581 3414.957 L 4150.121 3418.777 M 4152.781 3414.957 L 4152.781 3418.777 M 4152.781 3414.957 L 4155.321 3418.777 M 4155.321 3414.957 L 4155.321 3418.777" fill="none"  stroke-width="0.32"  /></g><g c_partid="part_pcbtext" c_etype="" c_origin="4148.669,3427.138" c_rotation="0" c_mirror="0" id="gge64" locked="0" layerid="3" c_shapetype="group" ><path c_fontsize="4" c_fontfamily="" c_text="VP" d="M 4148.671 3424.957 L 4150.121 3428.777 M 4151.581 3424.957 L 4150.121 3428.777 M 4152.781 3424.957 L 4152.781 3428.777 M 4152.781 3424.957 L 4154.411 3424.957 L 4154.961 3425.137 L 4155.141 3425.317 L 4155.321 3425.687 L 4155.321 3426.227 L 4155.141 3426.597 L 4154.961 3426.777 L 4154.411 3426.957 L 4152.781 3426.957" fill="none"  stroke-width="0.32"  /></g><g c_partid="part_pcbtext" c_etype="" c_origin="4148.669,3437.138" c_rotation="0" c_mirror="0" id="gge66" locked="0" layerid="3" c_shapetype="group" ><path c_fontsize="4" c_fontfamily="" c_text="EN" d="M 4148.671 3434.957 L 4148.671 3438.777 M 4148.671 3434.957 L 4151.031 3434.957 M 4148.671 3436.777 L 4150.121 3436.777 M 4148.671 3438.777 L 4151.031 3438.777 M 4152.231 3434.957 L 4152.231 3438.777 M 4152.231 3434.957 L 4154.781 3438.777 M 4154.781 3434.957 L 4154.781 3438.777" fill="none"  stroke-width="0.32"  /></g><g c_partid="part_pcbtext" c_etype="" c_origin="4069.5,3451.5" c_rotation="0" c_mirror="0" id="gge68" locked="0" layerid="3" c_shapetype="group" ><path c_fontsize="7.6" c_fontfamily="" c_text="ESP32-Devkit V1" d="M 4069.499 3447.35 L 4069.499 3454.61 M 4069.499 3447.35 L 4073.989 3447.35 M 4069.499 3450.81 L 4072.259 3450.81 M 4069.499 3454.61 L 4073.989 3454.61 M 4081.109 3448.39 L 4080.419 3447.7 L 4079.379 3447.35 L 4077.999 3447.35 L 4076.959 3447.7 L 4076.269 3448.39 L 4076.269 3449.08 L 4076.619 3449.77 L 4076.959 3450.12 L 4077.649 3450.46 L 4079.729 3451.15 L 4080.419 3451.5 L 4080.759 3451.85 L 4081.109 3452.54 L 4081.109 3453.57 L 4080.419 3454.26 L 4079.379 3454.61 L 4077.999 3454.61 L 4076.959 3454.26 L 4076.269 3453.57 M 4083.389 3447.35 L 4083.389 3454.61 M 4083.389 3447.35 L 4086.499 3447.35 L 4087.529 3447.7 L 4087.879 3448.05 L 4088.219 3448.74 L 4088.219 3449.77 L 4087.879 3450.46 L 4087.529 3450.81 L 4086.499 3451.15 L 4083.389 3451.15 M 4091.199 3447.35 L 4094.999 3447.35 L 4092.919 3450.12 L 4093.959 3450.12 L 4094.649 3450.46 L 4094.999 3450.81 L 4095.339 3451.85 L 4095.339 3452.54 L 4094.999 3453.57 L 4094.299 3454.26 L 4093.269 3454.61 L 4092.229 3454.61 L 4091.199 3454.26 L 4090.849 3453.92 L 4090.499 3453.23 M 4097.969 3449.08 L 4097.969 3448.74 L 4098.309 3448.05 L 4098.659 3447.7 L 4099.349 3447.35 L 4100.729 3447.35 L 4101.419 3447.7 L 4101.769 3448.05 L 4102.109 3448.74 L 4102.109 3449.43 L 4101.769 3450.12 L 4101.079 3451.15 L 4097.619 3454.61 L 4102.459 3454.61 M 4104.739 3451.5 L 4110.959 3451.5 M 4113.239 3447.35 L 4113.239 3454.61 M 4113.239 3447.35 L 4115.649 3447.35 L 4116.689 3447.7 L 4117.379 3448.39 L 4117.729 3449.08 L 4118.069 3450.12 L 4118.069 3451.85 L 4117.729 3452.88 L 4117.379 3453.57 L 4116.689 3454.26 L 4115.649 3454.61 L 4113.239 3454.61 M 4120.349 3451.85 L 4124.499 3451.85 L 4124.499 3451.15 L 4124.149 3450.46 L 4123.809 3450.12 L 4123.119 3449.77 L 4122.079 3449.77 L 4121.389 3450.12 L 4120.699 3450.81 L 4120.349 3451.85 L 4120.349 3452.54 L 4120.699 3453.57 L 4121.389 3454.26 L 4122.079 3454.61 L 4123.119 3454.61 L 4123.809 3454.26 L 4124.499 3453.57 M 4126.779 3449.77 L 4128.849 3454.61 M 4130.919 3449.77 L 4128.849 3454.61 M 4133.199 3447.35 L 4133.199 3454.61 M 4136.659 3449.77 L 4133.199 3453.23 M 4134.579 3451.85 L 4136.999 3454.61 M 4139.279 3447.35 L 4139.629 3447.7 L 4139.969 3447.35 L 4139.629 3447.01 L 4139.279 3447.35 M 4139.629 3449.77 L 4139.629 3454.61 M 4143.289 3447.35 L 4143.289 3453.23 L 4143.639 3454.26 L 4144.329 3454.61 L 4145.019 3454.61 M 4142.249 3449.77 L 4144.669 3449.77 M 4152.619 3447.35 L 4155.379 3454.61 M 4158.139 3447.35 L 4155.379 3454.61 M 4160.419 3448.74 L 4161.119 3448.39 L 4162.149 3447.35 L 4162.149 3454.61" fill="none"  stroke-width="0.608"  /></g><g c_partid="part_pcbtext" c_etype="" c_origin="4216.06,3455.78" c_rotation="90" c_mirror="0" id="gge224" locked="0" layerid="3" c_shapetype="group" display="none"><path c_fontsize="4.5" c_fontfamily="" c_text="Right Motor" d="M 4211.5201 3455.7798 L 4215.8101 3455.7798 M 4211.5201 3455.7798 L 4211.5201 3453.9398 L 4211.7201 3453.3298 L 4211.9301 3453.1198 L 4212.3401 3452.9198 L 4212.7501 3452.9198 L 4213.1601 3453.1198 L 4213.3601 3453.3298 L 4213.5601 3453.9398 L 4213.5601 3455.7798 M 4213.5601 3454.3498 L 4215.8101 3452.9198 M 4211.5201 3451.5698 L 4211.7201 3451.3598 L 4211.5201 3451.1598 L 4211.3101 3451.3598 L 4211.5201 3451.5698 M 4212.9501 3451.3598 L 4215.8101 3451.3598 M 4212.9501 3447.3498 L 4216.2201 3447.3498 L 4216.8401 3447.5598 L 4217.0401 3447.7598 L 4217.2501 3448.1698 L 4217.2501 3448.7798 L 4217.0401 3449.1898 M 4213.5601 3447.3498 L 4213.1601 3447.7598 L 4212.9501 3448.1698 L 4212.9501 3448.7798 L 4213.1601 3449.1898 L 4213.5601 3449.5998 L 4214.1801 3449.8098 L 4214.5901 3449.8098 L 4215.2001 3449.5998 L 4215.6101 3449.1898 L 4215.8101 3448.7798 L 4215.8101 3448.1698 L 4215.6101 3447.7598 L 4215.2001 3447.3498 M 4211.5201 3445.9998 L 4215.8101 3445.9998 M 4213.7701 3445.9998 L 4213.1601 3445.3898 L 4212.9501 3444.9798 L 4212.9501 3444.3698 L 4213.1601 3443.9598 L 4213.7701 3443.7498 L 4215.8101 3443.7498 M 4211.5201 3441.7898 L 4215.0001 3441.7898 L 4215.6101 3441.5798 L 4215.8101 3441.1798 L 4215.8101 3440.7698 M 4212.9501 3442.3998 L 4212.9501 3440.9698 M 4211.5201 3436.2698 L 4215.8101 3436.2698 M 4211.5201 3436.2698 L 4215.8101 3434.6298 M 4211.5201 3432.9898 L 4215.8101 3434.6298 M 4211.5201 3432.9898 L 4215.8101 3432.9898 M 4212.9501 3430.6198 L 4213.1601 3431.0298 L 4213.5601 3431.4398 L 4214.1801 3431.6398 L 4214.5901 3431.6398 L 4215.2001 3431.4398 L 4215.6101 3431.0298 L 4215.8101 3430.6198 L 4215.8101 3430.0098 L 4215.6101 3429.5998 L 4215.2001 3429.1898 L 4214.5901 3428.9798 L 4214.1801 3428.9798 L 4213.5601 3429.1898 L 4213.1601 3429.5998 L 4212.9501 3430.0098 L 4212.9501 3430.6198 M 4211.5201 3427.0198 L 4215.0001 3427.0198 L 4215.6101 3426.8198 L 4215.8101 3426.4098 L 4215.8101 3425.9998 M 4212.9501 3427.6298 L 4212.9501 3426.1998 M 4212.9501 3423.6298 L 4213.1601 3424.0298 L 4213.5601 3424.4398 L 4214.1801 3424.6498 L 4214.5901 3424.6498 L 4215.2001 3424.4398 L 4215.6101 3424.0298 L 4215.8101 3423.6298 L 4215.8101 3423.0098 L 4215.6101 3422.5998 L 4215.2001 3422.1898 L 4214.5901 3421.9898 L 4214.1801 3421.9898 L 4213.5601 3422.1898 L 4213.1601 3422.5998 L 4212.9501 3423.0098 L 4212.9501 3423.6298 M 4212.9501 3420.6398 L 4215.8101 3420.6398 M 4214.1801 3420.6398 L 4213.5601 3420.4298 L 4213.1601 3420.0298 L 4212.9501 3419.6198 L 4212.9501 3418.9998" fill="none"  stroke-width="0.6" c_note="note_name" /></g><g c_partid="part_pcbtext" c_etype="" c_origin="4205.5,3419" c_rotation="270" c_mirror="0" id="gge226" locked="0" layerid="3" c_shapetype="group" ><path c_fontsize="4.5" c_fontfamily="" c_text="P1" d="M 4210.04 3419 L 4205.75 3419 M 4210.04 3419 L 4210.04 3420.84 L 4209.84 3421.45 L 4209.63 3421.66 L 4209.22 3421.86 L 4208.61 3421.86 L 4208.2 3421.66 L 4208 3421.45 L 4207.79 3420.84 L 4207.79 3419 M 4209.22 3423.21 L 4209.43 3423.62 L 4210.04 3424.24 L 4205.75 3424.24" fill="none"  stroke-width="0.6" c_note="note_pre" /></g><g c_partid="part_pcbtext" c_etype="" c_origin="4025,3419.5" c_rotation="90" c_mirror="0" id="gge266" locked="0" layerid="3" c_shapetype="group" display="none"><path c_fontsize="4.5" c_fontfamily="" c_text="Left Motor" d="M 4020.46 3419.5 L 4024.75 3419.5 M 4024.75 3419.5 L 4024.75 3417.05 M 4023.12 3415.7 L 4023.12 3413.24 L 4022.71 3413.24 L 4022.3 3413.45 L 4022.1 3413.65 L 4021.89 3414.06 L 4021.89 3414.67 L 4022.1 3415.08 L 4022.5 3415.49 L 4023.12 3415.7 L 4023.53 3415.7 L 4024.14 3415.49 L 4024.55 3415.08 L 4024.75 3414.67 L 4024.75 3414.06 L 4024.55 3413.65 L 4024.14 3413.24 M 4020.46 3410.25 L 4020.46 3410.66 L 4020.66 3411.07 L 4021.28 3411.28 L 4024.75 3411.28 M 4021.89 3411.89 L 4021.89 3410.46 M 4020.46 3408.29 L 4023.94 3408.29 L 4024.55 3408.09 L 4024.75 3407.68 L 4024.75 3407.27 M 4021.89 3408.9 L 4021.89 3407.47 M 4020.46 3402.77 L 4024.75 3402.77 M 4020.46 3402.77 L 4024.75 3401.13 M 4020.46 3399.5 L 4024.75 3401.13 M 4020.46 3399.5 L 4024.75 3399.5 M 4021.89 3397.12 L 4022.1 3397.53 L 4022.5 3397.94 L 4023.12 3398.15 L 4023.53 3398.15 L 4024.14 3397.94 L 4024.55 3397.53 L 4024.75 3397.12 L 4024.75 3396.51 L 4024.55 3396.1 L 4024.14 3395.69 L 4023.53 3395.49 L 4023.12 3395.49 L 4022.5 3395.69 L 4022.1 3396.1 L 4021.89 3396.51 L 4021.89 3397.12 M 4020.46 3393.52 L 4023.94 3393.52 L 4024.55 3393.32 L 4024.75 3392.91 L 4024.75 3392.5 M 4021.89 3394.14 L 4021.89 3392.7 M 4021.89 3390.13 L 4022.1 3390.54 L 4022.5 3390.95 L 4023.12 3391.15 L 4023.53 3391.15 L 4024.14 3390.95 L 4024.55 3390.54 L 4024.75 3390.13 L 4024.75 3389.51 L 4024.55 3389.1 L 4024.14 3388.7 L 4023.53 3388.49 L 4023.12 3388.49 L 4022.5 3388.7 L 4022.1 3389.1 L 4021.89 3389.51 L 4021.89 3390.13 M 4021.89 3387.14 L 4024.75 3387.14 M 4023.12 3387.14 L 4022.5 3386.94 L 4022.1 3386.53 L 4021.89 3386.12 L 4021.89 3385.5" fill="none"  stroke-width="0.6" c_note="note_name" /></g><g c_partid="part_pcbtext" c_etype="" c_origin="4032,3419.5" c_rotation="90" c_mirror="0" id="gge268" locked="0" layerid="3" c_shapetype="group" ><path c_fontsize="4.5" c_fontfamily="" c_text="P2" d="M 4027.46 3419.5 L 4031.75 3419.5 M 4027.46 3419.5 L 4027.46 3417.66 L 4027.66 3417.05 L 4027.87 3416.84 L 4028.28 3416.64 L 4028.89 3416.64 L 4029.3 3416.84 L 4029.5 3417.05 L 4029.71 3417.66 L 4029.71 3419.5 M 4028.48 3415.08 L 4028.28 3415.08 L 4027.87 3414.88 L 4027.66 3414.67 L 4027.46 3414.26 L 4027.46 3413.45 L 4027.66 3413.04 L 4027.87 3412.83 L 4028.28 3412.63 L 4028.69 3412.63 L 4029.1 3412.83 L 4029.71 3413.24 L 4031.75 3415.29 L 4031.75 3412.42" fill="none"  stroke-width="0.6" c_note="note_pre" /></g><g c_partid="part_pcbtext" c_etype="" c_origin="4090.5,3382.5" c_rotation="90" c_mirror="0" id="gge308" locked="0" layerid="3" c_shapetype="group" display="none"><path c_fontsize="4.5" c_fontfamily="" c_text="L293D" d="M 4085.96 3382.5 L 4090.25 3382.5 M 4090.25 3382.5 L 4090.25 3380.05 M 4086.98 3378.49 L 4086.78 3378.49 L 4086.37 3378.29 L 4086.16 3378.08 L 4085.96 3377.67 L 4085.96 3376.85 L 4086.16 3376.45 L 4086.37 3376.24 L 4086.78 3376.04 L 4087.19 3376.04 L 4087.6 3376.24 L 4088.21 3376.65 L 4090.25 3378.7 L 4090.25 3375.83 M 4087.39 3371.82 L 4088 3372.03 L 4088.41 3372.44 L 4088.62 3373.05 L 4088.62 3373.25 L 4088.41 3373.87 L 4088 3374.28 L 4087.39 3374.48 L 4087.19 3374.48 L 4086.57 3374.28 L 4086.16 3373.87 L 4085.96 3373.25 L 4085.96 3373.05 L 4086.16 3372.44 L 4086.57 3372.03 L 4087.39 3371.82 L 4088.41 3371.82 L 4089.44 3372.03 L 4090.05 3372.44 L 4090.25 3373.05 L 4090.25 3373.46 L 4090.05 3374.07 L 4089.64 3374.28 M 4085.96 3370.06 L 4085.96 3367.81 L 4087.6 3369.04 L 4087.6 3368.43 L 4087.8 3368.02 L 4088 3367.81 L 4088.62 3367.61 L 4089.03 3367.61 L 4089.64 3367.81 L 4090.05 3368.22 L 4090.25 3368.84 L 4090.25 3369.45 L 4090.05 3370.06 L 4089.85 3370.27 L 4089.44 3370.47 M 4085.96 3366.26 L 4090.25 3366.26 M 4085.96 3366.26 L 4085.96 3364.83 L 4086.16 3364.21 L 4086.57 3363.8 L 4086.98 3363.6 L 4087.6 3363.4 L 4088.62 3363.4 L 4089.23 3363.6 L 4089.64 3363.8 L 4090.05 3364.21 L 4090.25 3364.83 L 4090.25 3366.26" fill="none"  stroke-width="0.6" c_note="note_name" /></g><g c_partid="part_pcbtext" c_etype="" c_origin="4097.5,3382.5" c_rotation="90" c_mirror="0" id="gge310" locked="0" layerid="3" c_shapetype="group" ><path c_fontsize="4.5" c_fontfamily="" c_text="U1" d="M 4092.96 3382.5 L 4096.03 3382.5 L 4096.64 3382.3 L 4097.05 3381.89 L 4097.25 3381.27 L 4097.25 3380.86 L 4097.05 3380.25 L 4096.64 3379.84 L 4096.03 3379.64 L 4092.96 3379.64 M 4093.78 3378.29 L 4093.57 3377.88 L 4092.96 3377.26 L 4097.25 3377.26" fill="none"  stroke-width="0.6" c_note="note_pre" /></g><path d="M 4113.375 3419.802 A 3.125 3.125 0 0 1 4119.625 3419.802" locked="0"  fill="none" stroke-width="0.6" c_helper_type="arc2" net="" layerid="3" id="gge313" /><circle cx="4131.5" cy="3421.155" r="0.591" stroke-width="1.1811" fill="none" layerid="3" id="gge330" locked="0"  /><polyline points="4020 3237.5 4216.85 3237.5 4216.85 3474.5 4020 3474.5 4020 3237.5" stroke-width="1"  stroke-linecap="round" fill="none" layerid="10" net="" id="gge457" locked="0" /></svg>